<mxfile host="app.diagrams.net" modified="2023-06-05T03:53:25.647Z" agent="Mozilla/5.0 (Macintosh; Intel Mac OS X 10_15_7) AppleWebKit/537.36 (KHTML, like Gecko) Chrome/113.0.0.0 Safari/537.36" etag="jDCBmW0-OBYpx-65fOut" version="21.3.5" type="github">
  <diagram name="Page-1" id="D-gr6mcoNEV65RIqs6z_">
    <mxGraphModel dx="1833" dy="1841" grid="1" gridSize="10" guides="1" tooltips="1" connect="1" arrows="1" fold="1" page="1" pageScale="1" pageWidth="827" pageHeight="1169" math="0" shadow="0">
      <root>
        <mxCell id="0" />
        <mxCell id="1" parent="0" />
        <UserObject label="" plantUmlData="{&#xa;  &quot;data&quot;: &quot;@startuml\nclass Customer {\n    +customerId : int\n    +firstName : string\n    +lastName : string\n    +email : string\n    +phone : string\n    +address : string\n    +updateRecord()\n    +payMonthlyBill()\n    +rentGame()\n    +orderPPV()\n    +cancelPPV()\n    +changePlan()\n    +submitReview()\n    +shareLink()\n    +scheduleAppointment()\n}\n\nclass Account {\n    +accountId : int\n    +customerId : int\n    +username : string\n    +password : string\n    +lastLogin : timestamp\n}\n\nclass Order {\n    +orderId : int\n    +customerId : int\n    +orderDate : timestamp\n    +orderType : string\n    +status : string\n}\n\nclass Product {\n    +productId : int\n    +productName : string\n    +productType : string\n    +description : string\n    +price : decimal\n    +shareLink()\n}\n\nclass TVPlan extends Product {\n    +channels : int\n}\n\nclass InternetPlan extends Product {\n    +speed : string\n}\n\nclass PPVEvent extends Product {\n    +eventDate : timestamp\n}\n\nclass GameRental extends Product {\n    +games : int\n}\n\nclass IncidentTicket {\n    +ticketId : int\n    +customerId : int\n    +technicianId : int\n    +ticketDate : timestamp\n    +status : string\n    +schedule()\n    +close()\n    +cancel()\n}\n\nclass User {\n    +userId : int\n    +username : string\n    +password : string\n    +role : string\n}\n\nclass Review {\n    +reviewId : int\n    +customerId : int\n    +productId : int\n    +rating : int\n    +comment : string\n}\n\nclass ZipCode {\n    +zipCodeId : int\n    +zipCode : string\n}\n\nclass SalesData {\n    +salesDataId : int\n    +productId : int\n    +zipCodeId : int\n    +quantity : int\n}\n\nclass InfluentialReviewer {\n    +reviewerId : int\n    +customerId : int\n    +rating : int\n}\n\nclass Manager {\n    +cancelOrder()\n    +updateOrder()\n    +deleteOrder()\n}\n\nclass AccountSpecialist {\n    +createAccount()\n    +updateAccount()\n    +createTicket()\n    +orderPPV()\n}\n\nclass TechnicalSupportSpecialist {\n    +scheduleTicket()\n    +closeTicket()\n    +cancelTicket()\n}\n\nclass SalesTeam {\n    +forecastRevenue()\n    +demandAnalysis()\n}\n\nclass DataScientist {\n    +findSuperConnectors()\n    +crossPromotion()\n}\n\nCustomer --&gt; Account\nCustomer --&gt; Order\nOrder --&gt; Product\nOrder --&gt; Customer\nTVPlan --&gt; Product\nInternetPlan --&gt; Product\nPPVEvent --&gt; Product\nGameRental --&gt; Product\nIncidentTicket --&gt; Customer\nIncidentTicket --&gt; User\nPPVEvent --&gt; SalesData\nZipCode --&gt; SalesData\nInfluentialReviewer --&gt; Customer\nReview --&gt; Customer\nReview --&gt; Product\nManager --|&gt; User\nAccountSpecialist --|&gt; User\nTechnicalSupportSpecialist --|&gt; User\nSalesTeam --&gt; SalesData\nDataScientist --&gt; InfluentialReviewer\n@enduml&quot;,&#xa;  &quot;format&quot;: &quot;svg&quot;&#xa;}" id="_jUS5mJPYV06afkyq-m--1">
          <mxCell style="shape=image;noLabel=1;verticalAlign=top;aspect=fixed;imageAspect=0;image=data:image/svg+xml,PD94bWwgdmVyc2lvbj0iMS4wIiBlbmNvZGluZz0idXMtYXNjaWkiIHN0YW5kYWxvbmU9Im5vIj8+PHN2ZyB4bWxucz0iaHR0cDovL3d3dy53My5vcmcvMjAwMC9zdmciIHhtbG5zOnhsaW5rPSJodHRwOi8vd3d3LnczLm9yZy8xOTk5L3hsaW5rIiBjb250ZW50U3R5bGVUeXBlPSJ0ZXh0L2NzcyIgaGVpZ2h0PSIxMzM5cHgiIHByZXNlcnZlQXNwZWN0UmF0aW89Im5vbmUiIHN0eWxlPSJ3aWR0aDoxNzA4cHg7aGVpZ2h0OjEzMzlweDtiYWNrZ3JvdW5kOiNGRkZGRkY7IiB2ZXJzaW9uPSIxLjEiIHZpZXdCb3g9IjAgMCAxNzA4IDEzMzkiIHdpZHRoPSIxNzA4cHgiIHpvb21BbmRQYW49Im1hZ25pZnkiPjxkZWZzLz48Zz48IS0tY2xhc3MgQ3VzdG9tZXItLT48ZyBpZD0iZWxlbV9DdXN0b21lciI+PHJlY3QgY29kZUxpbmU9IjEiIGZpbGw9IiNGMUYxRjEiIGhlaWdodD0iMjcyLjc2NTYiIGlkPSJDdXN0b21lciIgcng9IjIuNSIgcnk9IjIuNSIgc3R5bGU9InN0cm9rZTojMTgxODE4O3N0cm9rZS13aWR0aDowLjU7IiB3aWR0aD0iMTc2IiB4PSI3MDAiIHk9IjM3MyIvPjxlbGxpcHNlIGN4PSI3NTUuMjUiIGN5PSIzODkiIGZpbGw9IiNBREQxQjIiIHJ4PSIxMSIgcnk9IjExIiBzdHlsZT0ic3Ryb2tlOiMxODE4MTg7c3Ryb2tlLXdpZHRoOjEuMDsiLz48cGF0aCBkPSJNNzUyLjg3NSwzOTMuMjUgTDc1Mi44NzUsMzk1IEw3NTcuODEyNSwzOTUgTDc1Ny44MTI1LDM5My4yNSBMNzUyLjg3NSwzOTMuMjUgWiBNNzUzLjU2MjUsMzkzLjkzNzUgUTc1My41NjI1LDM5My45Mzc1IDc1My41NjI1LDM4NC43NSBMNzUxLjgxMjUsMzg0Ljc1IFE3NTEuODEyNSwzODQuNzUgNzUxLjgxMjUsMzkzLjkzNzUgTDc1My41NjI1LDM5My45Mzc1IFogTTc1Ny4xMjUsMzkzLjkzNzUgTDc1OC44NzUsMzkzLjkzNzUgUTc1OC44NzUsMzkzLjkzNzUgNzU4Ljg3NSwzOTEuMTI1IEw3NTcuMTI1LDM5MS4xMjUgUTc1Ny4xMjUsMzkxLjEyNSA3NTcuMTI1LDM5My45Mzc1IFogTTc1Ny4xMjUsMzg0Ljc1IFE3NTcuMTI1LDM4NC43NSA3NTcuMTI1LDM4Ny41NjI1IEw3NTguODc1LDM4Ny41NjI1IFE3NTguODc1LDM4Ny41NjI1IDc1OC44NzUsMzg0Ljc1IEw3NTcuMTI1LDM4NC43NSBaIE03NTIuODc1LDM4NS40Mzc1IEw3NTcuODEyNSwzODUuNDM3NSBMNzU3LjgxMjUsMzgzLjY4NzUgTDc1Mi44NzUsMzgzLjY4NzUgTDc1Mi44NzUsMzg1LjQzNzUgWiAiIGZpbGw9IiMwMDAwMDAiLz48dGV4dCBmaWxsPSIjMDAwMDAwIiBmb250LWZhbWlseT0ic2Fucy1zZXJpZiIgZm9udC1zaXplPSIxNCIgbGVuZ3RoQWRqdXN0PSJzcGFjaW5nIiB0ZXh0TGVuZ3RoPSI1NyIgeD0iNzc1Ljc1IiB5PSIzOTQuNzQyMiI+Q3VzdG9tZXI8L3RleHQ+PGxpbmUgc3R5bGU9InN0cm9rZTojMTgxODE4O3N0cm9rZS13aWR0aDowLjU7IiB4MT0iNzAxIiB4Mj0iODc1IiB5MT0iNDA1IiB5Mj0iNDA1Ii8+PGVsbGlwc2UgY3g9IjcxMSIgY3k9IjQxNy45OTIyIiBmaWxsPSJub25lIiByeD0iMyIgcnk9IjMiIHN0eWxlPSJzdHJva2U6IzAzODA0ODtzdHJva2Utd2lkdGg6MS4wOyIvPjx0ZXh0IGZpbGw9IiMwMDAwMDAiIGZvbnQtZmFtaWx5PSJzYW5zLXNlcmlmIiBmb250LXNpemU9IjE0IiBsZW5ndGhBZGp1c3Q9InNwYWNpbmciIHRleHRMZW5ndGg9IjExMyIgeD0iNzIwIiB5PSI0MjIuMjM0NCI+Y3VzdG9tZXJJZCA6IGludDwvdGV4dD48ZWxsaXBzZSBjeD0iNzExIiBjeT0iNDMyLjk3NjYiIGZpbGw9Im5vbmUiIHJ4PSIzIiByeT0iMyIgc3R5bGU9InN0cm9rZTojMDM4MDQ4O3N0cm9rZS13aWR0aDoxLjA7Ii8+PHRleHQgZmlsbD0iIzAwMDAwMCIgZm9udC1mYW1pbHk9InNhbnMtc2VyaWYiIGZvbnQtc2l6ZT0iMTQiIGxlbmd0aEFkanVzdD0ic3BhY2luZyIgdGV4dExlbmd0aD0iMTI3IiB4PSI3MjAiIHk9IjQzNy4yMTg4Ij5maXJzdE5hbWUgOiBzdHJpbmc8L3RleHQ+PGVsbGlwc2UgY3g9IjcxMSIgY3k9IjQ0Ny45NjA5IiBmaWxsPSJub25lIiByeD0iMyIgcnk9IjMiIHN0eWxlPSJzdHJva2U6IzAzODA0ODtzdHJva2Utd2lkdGg6MS4wOyIvPjx0ZXh0IGZpbGw9IiMwMDAwMDAiIGZvbnQtZmFtaWx5PSJzYW5zLXNlcmlmIiBmb250LXNpemU9IjE0IiBsZW5ndGhBZGp1c3Q9InNwYWNpbmciIHRleHRMZW5ndGg9IjEyMCIgeD0iNzIwIiB5PSI0NTIuMjAzMSI+bGFzdE5hbWUgOiBzdHJpbmc8L3RleHQ+PGVsbGlwc2UgY3g9IjcxMSIgY3k9IjQ2Mi45NDUzIiBmaWxsPSJub25lIiByeD0iMyIgcnk9IjMiIHN0eWxlPSJzdHJva2U6IzAzODA0ODtzdHJva2Utd2lkdGg6MS4wOyIvPjx0ZXh0IGZpbGw9IiMwMDAwMDAiIGZvbnQtZmFtaWx5PSJzYW5zLXNlcmlmIiBmb250LXNpemU9IjE0IiBsZW5ndGhBZGp1c3Q9InNwYWNpbmciIHRleHRMZW5ndGg9Ijk5IiB4PSI3MjAiIHk9IjQ2Ny4xODc1Ij5lbWFpbCA6IHN0cmluZzwvdGV4dD48ZWxsaXBzZSBjeD0iNzExIiBjeT0iNDc3LjkyOTciIGZpbGw9Im5vbmUiIHJ4PSIzIiByeT0iMyIgc3R5bGU9InN0cm9rZTojMDM4MDQ4O3N0cm9rZS13aWR0aDoxLjA7Ii8+PHRleHQgZmlsbD0iIzAwMDAwMCIgZm9udC1mYW1pbHk9InNhbnMtc2VyaWYiIGZvbnQtc2l6ZT0iMTQiIGxlbmd0aEFkanVzdD0ic3BhY2luZyIgdGV4dExlbmd0aD0iOTgiIHg9IjcyMCIgeT0iNDgyLjE3MTkiPnBob25lIDogc3RyaW5nPC90ZXh0PjxlbGxpcHNlIGN4PSI3MTEiIGN5PSI0OTIuOTE0MSIgZmlsbD0ibm9uZSIgcng9IjMiIHJ5PSIzIiBzdHlsZT0ic3Ryb2tlOiMwMzgwNDg7c3Ryb2tlLXdpZHRoOjEuMDsiLz48dGV4dCBmaWxsPSIjMDAwMDAwIiBmb250LWZhbWlseT0ic2Fucy1zZXJpZiIgZm9udC1zaXplPSIxNCIgbGVuZ3RoQWRqdXN0PSJzcGFjaW5nIiB0ZXh0TGVuZ3RoPSIxMTIiIHg9IjcyMCIgeT0iNDk3LjE1NjMiPmFkZHJlc3MgOiBzdHJpbmc8L3RleHQ+PGxpbmUgc3R5bGU9InN0cm9rZTojMTgxODE4O3N0cm9rZS13aWR0aDowLjU7IiB4MT0iNzAxIiB4Mj0iODc1IiB5MT0iNTAyLjkwNjMiIHkyPSI1MDIuOTA2MyIvPjxlbGxpcHNlIGN4PSI3MTEiIGN5PSI1MTUuODk4NCIgZmlsbD0iIzg0QkU4NCIgcng9IjMiIHJ5PSIzIiBzdHlsZT0ic3Ryb2tlOiMwMzgwNDg7c3Ryb2tlLXdpZHRoOjEuMDsiLz48dGV4dCBmaWxsPSIjMDAwMDAwIiBmb250LWZhbWlseT0ic2Fucy1zZXJpZiIgZm9udC1zaXplPSIxNCIgbGVuZ3RoQWRqdXN0PSJzcGFjaW5nIiB0ZXh0TGVuZ3RoPSIxMDAiIHg9IjcyMCIgeT0iNTIwLjE0MDYiPnVwZGF0ZVJlY29yZCgpPC90ZXh0PjxlbGxpcHNlIGN4PSI3MTEiIGN5PSI1MzAuODgyOCIgZmlsbD0iIzg0QkU4NCIgcng9IjMiIHJ5PSIzIiBzdHlsZT0ic3Ryb2tlOiMwMzgwNDg7c3Ryb2tlLXdpZHRoOjEuMDsiLz48dGV4dCBmaWxsPSIjMDAwMDAwIiBmb250LWZhbWlseT0ic2Fucy1zZXJpZiIgZm9udC1zaXplPSIxNCIgbGVuZ3RoQWRqdXN0PSJzcGFjaW5nIiB0ZXh0TGVuZ3RoPSIxMTQiIHg9IjcyMCIgeT0iNTM1LjEyNSI+cGF5TW9udGhseUJpbGwoKTwvdGV4dD48ZWxsaXBzZSBjeD0iNzExIiBjeT0iNTQ1Ljg2NzIiIGZpbGw9IiM4NEJFODQiIHJ4PSIzIiByeT0iMyIgc3R5bGU9InN0cm9rZTojMDM4MDQ4O3N0cm9rZS13aWR0aDoxLjA7Ii8+PHRleHQgZmlsbD0iIzAwMDAwMCIgZm9udC1mYW1pbHk9InNhbnMtc2VyaWYiIGZvbnQtc2l6ZT0iMTQiIGxlbmd0aEFkanVzdD0ic3BhY2luZyIgdGV4dExlbmd0aD0iNzMiIHg9IjcyMCIgeT0iNTUwLjEwOTQiPnJlbnRHYW1lKCk8L3RleHQ+PGVsbGlwc2UgY3g9IjcxMSIgY3k9IjU2MC44NTE2IiBmaWxsPSIjODRCRTg0IiByeD0iMyIgcnk9IjMiIHN0eWxlPSJzdHJva2U6IzAzODA0ODtzdHJva2Utd2lkdGg6MS4wOyIvPjx0ZXh0IGZpbGw9IiMwMDAwMDAiIGZvbnQtZmFtaWx5PSJzYW5zLXNlcmlmIiBmb250LXNpemU9IjE0IiBsZW5ndGhBZGp1c3Q9InNwYWNpbmciIHRleHRMZW5ndGg9IjcyIiB4PSI3MjAiIHk9IjU2NS4wOTM4Ij5vcmRlclBQVigpPC90ZXh0PjxlbGxpcHNlIGN4PSI3MTEiIGN5PSI1NzUuODM1OSIgZmlsbD0iIzg0QkU4NCIgcng9IjMiIHJ5PSIzIiBzdHlsZT0ic3Ryb2tlOiMwMzgwNDg7c3Ryb2tlLXdpZHRoOjEuMDsiLz48dGV4dCBmaWxsPSIjMDAwMDAwIiBmb250LWZhbWlseT0ic2Fucy1zZXJpZiIgZm9udC1zaXplPSIxNCIgbGVuZ3RoQWRqdXN0PSJzcGFjaW5nIiB0ZXh0TGVuZ3RoPSI3OSIgeD0iNzIwIiB5PSI1ODAuMDc4MSI+Y2FuY2VsUFBWKCk8L3RleHQ+PGVsbGlwc2UgY3g9IjcxMSIgY3k9IjU5MC44MjAzIiBmaWxsPSIjODRCRTg0IiByeD0iMyIgcnk9IjMiIHN0eWxlPSJzdHJva2U6IzAzODA0ODtzdHJva2Utd2lkdGg6MS4wOyIvPjx0ZXh0IGZpbGw9IiMwMDAwMDAiIGZvbnQtZmFtaWx5PSJzYW5zLXNlcmlmIiBmb250LXNpemU9IjE0IiBsZW5ndGhBZGp1c3Q9InNwYWNpbmciIHRleHRMZW5ndGg9Ijg2IiB4PSI3MjAiIHk9IjU5NS4wNjI1Ij5jaGFuZ2VQbGFuKCk8L3RleHQ+PGVsbGlwc2UgY3g9IjcxMSIgY3k9IjYwNS44MDQ3IiBmaWxsPSIjODRCRTg0IiByeD0iMyIgcnk9IjMiIHN0eWxlPSJzdHJva2U6IzAzODA0ODtzdHJva2Utd2lkdGg6MS4wOyIvPjx0ZXh0IGZpbGw9IiMwMDAwMDAiIGZvbnQtZmFtaWx5PSJzYW5zLXNlcmlmIiBmb250LXNpemU9IjE0IiBsZW5ndGhBZGp1c3Q9InNwYWNpbmciIHRleHRMZW5ndGg9IjEwMiIgeD0iNzIwIiB5PSI2MTAuMDQ2OSI+c3VibWl0UmV2aWV3KCk8L3RleHQ+PGVsbGlwc2UgY3g9IjcxMSIgY3k9IjYyMC43ODkxIiBmaWxsPSIjODRCRTg0IiByeD0iMyIgcnk9IjMiIHN0eWxlPSJzdHJva2U6IzAzODA0ODtzdHJva2Utd2lkdGg6MS4wOyIvPjx0ZXh0IGZpbGw9IiMwMDAwMDAiIGZvbnQtZmFtaWx5PSJzYW5zLXNlcmlmIiBmb250LXNpemU9IjE0IiBsZW5ndGhBZGp1c3Q9InNwYWNpbmciIHRleHRMZW5ndGg9Ijc5IiB4PSI3MjAiIHk9IjYyNS4wMzEzIj5zaGFyZUxpbmsoKTwvdGV4dD48ZWxsaXBzZSBjeD0iNzExIiBjeT0iNjM1Ljc3MzQiIGZpbGw9IiM4NEJFODQiIHJ4PSIzIiByeT0iMyIgc3R5bGU9InN0cm9rZTojMDM4MDQ4O3N0cm9rZS13aWR0aDoxLjA7Ii8+PHRleHQgZmlsbD0iIzAwMDAwMCIgZm9udC1mYW1pbHk9InNhbnMtc2VyaWYiIGZvbnQtc2l6ZT0iMTQiIGxlbmd0aEFkanVzdD0ic3BhY2luZyIgdGV4dExlbmd0aD0iMTUwIiB4PSI3MjAiIHk9IjY0MC4wMTU2Ij5zY2hlZHVsZUFwcG9pbnRtZW50KCk8L3RleHQ+PC9nPjwhLS1jbGFzcyBBY2NvdW50LS0+PGcgaWQ9ImVsZW1fQWNjb3VudCI+PHJlY3QgY29kZUxpbmU9IjE5IiBmaWxsPSIjRjFGMUYxIiBoZWlnaHQ9IjEyMi45MjE5IiBpZD0iQWNjb3VudCIgcng9IjIuNSIgcnk9IjIuNSIgc3R5bGU9InN0cm9rZTojMTgxODE4O3N0cm9rZS13aWR0aDowLjU7IiB3aWR0aD0iMTc1IiB4PSI5MDQuNSIgeT0iNzA2Ii8+PGVsbGlwc2UgY3g9Ijk2My4yNSIgY3k9IjcyMiIgZmlsbD0iI0FERDFCMiIgcng9IjExIiByeT0iMTEiIHN0eWxlPSJzdHJva2U6IzE4MTgxODtzdHJva2Utd2lkdGg6MS4wOyIvPjxwYXRoIGQ9Ik05NjAuODc1LDcyNi4yNSBMOTYwLjg3NSw3MjggTDk2NS44MTI1LDcyOCBMOTY1LjgxMjUsNzI2LjI1IEw5NjAuODc1LDcyNi4yNSBaIE05NjEuNTYyNSw3MjYuOTM3NSBROTYxLjU2MjUsNzI2LjkzNzUgOTYxLjU2MjUsNzE3Ljc1IEw5NTkuODEyNSw3MTcuNzUgUTk1OS44MTI1LDcxNy43NSA5NTkuODEyNSw3MjYuOTM3NSBMOTYxLjU2MjUsNzI2LjkzNzUgWiBNOTY1LjEyNSw3MjYuOTM3NSBMOTY2Ljg3NSw3MjYuOTM3NSBROTY2Ljg3NSw3MjYuOTM3NSA5NjYuODc1LDcyNC4xMjUgTDk2NS4xMjUsNzI0LjEyNSBROTY1LjEyNSw3MjQuMTI1IDk2NS4xMjUsNzI2LjkzNzUgWiBNOTY1LjEyNSw3MTcuNzUgUTk2NS4xMjUsNzE3Ljc1IDk2NS4xMjUsNzIwLjU2MjUgTDk2Ni44NzUsNzIwLjU2MjUgUTk2Ni44NzUsNzIwLjU2MjUgOTY2Ljg3NSw3MTcuNzUgTDk2NS4xMjUsNzE3Ljc1IFogTTk2MC44NzUsNzE4LjQzNzUgTDk2NS44MTI1LDcxOC40Mzc1IEw5NjUuODEyNSw3MTYuNjg3NSBMOTYwLjg3NSw3MTYuNjg3NSBMOTYwLjg3NSw3MTguNDM3NSBaICIgZmlsbD0iIzAwMDAwMCIvPjx0ZXh0IGZpbGw9IiMwMDAwMDAiIGZvbnQtZmFtaWx5PSJzYW5zLXNlcmlmIiBmb250LXNpemU9IjE0IiBsZW5ndGhBZGp1c3Q9InNwYWNpbmciIHRleHRMZW5ndGg9IjQ5IiB4PSI5ODMuNzUiIHk9IjcyNy43NDIyIj5BY2NvdW50PC90ZXh0PjxsaW5lIHN0eWxlPSJzdHJva2U6IzE4MTgxODtzdHJva2Utd2lkdGg6MC41OyIgeDE9IjkwNS41IiB4Mj0iMTA3OC41IiB5MT0iNzM4IiB5Mj0iNzM4Ii8+PGVsbGlwc2UgY3g9IjkxNS41IiBjeT0iNzUwLjk5MjIiIGZpbGw9Im5vbmUiIHJ4PSIzIiByeT0iMyIgc3R5bGU9InN0cm9rZTojMDM4MDQ4O3N0cm9rZS13aWR0aDoxLjA7Ii8+PHRleHQgZmlsbD0iIzAwMDAwMCIgZm9udC1mYW1pbHk9InNhbnMtc2VyaWYiIGZvbnQtc2l6ZT0iMTQiIGxlbmd0aEFkanVzdD0ic3BhY2luZyIgdGV4dExlbmd0aD0iMTA1IiB4PSI5MjQuNSIgeT0iNzU1LjIzNDQiPmFjY291bnRJZCA6IGludDwvdGV4dD48ZWxsaXBzZSBjeD0iOTE1LjUiIGN5PSI3NjUuOTc2NiIgZmlsbD0ibm9uZSIgcng9IjMiIHJ5PSIzIiBzdHlsZT0ic3Ryb2tlOiMwMzgwNDg7c3Ryb2tlLXdpZHRoOjEuMDsiLz48dGV4dCBmaWxsPSIjMDAwMDAwIiBmb250LWZhbWlseT0ic2Fucy1zZXJpZiIgZm9udC1zaXplPSIxNCIgbGVuZ3RoQWRqdXN0PSJzcGFjaW5nIiB0ZXh0TGVuZ3RoPSIxMTMiIHg9IjkyNC41IiB5PSI3NzAuMjE4OCI+Y3VzdG9tZXJJZCA6IGludDwvdGV4dD48ZWxsaXBzZSBjeD0iOTE1LjUiIGN5PSI3ODAuOTYwOSIgZmlsbD0ibm9uZSIgcng9IjMiIHJ5PSIzIiBzdHlsZT0ic3Ryb2tlOiMwMzgwNDg7c3Ryb2tlLXdpZHRoOjEuMDsiLz48dGV4dCBmaWxsPSIjMDAwMDAwIiBmb250LWZhbWlseT0ic2Fucy1zZXJpZiIgZm9udC1zaXplPSIxNCIgbGVuZ3RoQWRqdXN0PSJzcGFjaW5nIiB0ZXh0TGVuZ3RoPSIxMjAiIHg9IjkyNC41IiB5PSI3ODUuMjAzMSI+dXNlcm5hbWUgOiBzdHJpbmc8L3RleHQ+PGVsbGlwc2UgY3g9IjkxNS41IiBjeT0iNzk1Ljk0NTMiIGZpbGw9Im5vbmUiIHJ4PSIzIiByeT0iMyIgc3R5bGU9InN0cm9rZTojMDM4MDQ4O3N0cm9rZS13aWR0aDoxLjA7Ii8+PHRleHQgZmlsbD0iIzAwMDAwMCIgZm9udC1mYW1pbHk9InNhbnMtc2VyaWYiIGZvbnQtc2l6ZT0iMTQiIGxlbmd0aEFkanVzdD0ic3BhY2luZyIgdGV4dExlbmd0aD0iMTIwIiB4PSI5MjQuNSIgeT0iODAwLjE4NzUiPnBhc3N3b3JkIDogc3RyaW5nPC90ZXh0PjxlbGxpcHNlIGN4PSI5MTUuNSIgY3k9IjgxMC45Mjk3IiBmaWxsPSJub25lIiByeD0iMyIgcnk9IjMiIHN0eWxlPSJzdHJva2U6IzAzODA0ODtzdHJva2Utd2lkdGg6MS4wOyIvPjx0ZXh0IGZpbGw9IiMwMDAwMDAiIGZvbnQtZmFtaWx5PSJzYW5zLXNlcmlmIiBmb250LXNpemU9IjE0IiBsZW5ndGhBZGp1c3Q9InNwYWNpbmciIHRleHRMZW5ndGg9IjE0OSIgeD0iOTI0LjUiIHk9IjgxNS4xNzE5Ij5sYXN0TG9naW4gOiB0aW1lc3RhbXA8L3RleHQ+PGxpbmUgc3R5bGU9InN0cm9rZTojMTgxODE4O3N0cm9rZS13aWR0aDowLjU7IiB4MT0iOTA1LjUiIHgyPSIxMDc4LjUiIHkxPSI4MjAuOTIxOSIgeTI9IjgyMC45MjE5Ii8+PC9nPjwhLS1jbGFzcyBPcmRlci0tPjxnIGlkPSJlbGVtX09yZGVyIj48cmVjdCBjb2RlTGluZT0iMjciIGZpbGw9IiNGMUYxRjEiIGhlaWdodD0iMTIyLjkyMTkiIGlkPSJPcmRlciIgcng9IjIuNSIgcnk9IjIuNSIgc3R5bGU9InN0cm9rZTojMTgxODE4O3N0cm9rZS13aWR0aDowLjU7IiB3aWR0aD0iMTc1IiB4PSI2OTQuNSIgeT0iNzA2Ii8+PGVsbGlwc2UgY3g9Ijc2MC4yNSIgY3k9IjcyMiIgZmlsbD0iI0FERDFCMiIgcng9IjExIiByeT0iMTEiIHN0eWxlPSJzdHJva2U6IzE4MTgxODtzdHJva2Utd2lkdGg6MS4wOyIvPjxwYXRoIGQ9Ik03NTcuODc1LDcyNi4yNSBMNzU3Ljg3NSw3MjggTDc2Mi44MTI1LDcyOCBMNzYyLjgxMjUsNzI2LjI1IEw3NTcuODc1LDcyNi4yNSBaIE03NTguNTYyNSw3MjYuOTM3NSBRNzU4LjU2MjUsNzI2LjkzNzUgNzU4LjU2MjUsNzE3Ljc1IEw3NTYuODEyNSw3MTcuNzUgUTc1Ni44MTI1LDcxNy43NSA3NTYuODEyNSw3MjYuOTM3NSBMNzU4LjU2MjUsNzI2LjkzNzUgWiBNNzYyLjEyNSw3MjYuOTM3NSBMNzYzLjg3NSw3MjYuOTM3NSBRNzYzLjg3NSw3MjYuOTM3NSA3NjMuODc1LDcyNC4xMjUgTDc2Mi4xMjUsNzI0LjEyNSBRNzYyLjEyNSw3MjQuMTI1IDc2Mi4xMjUsNzI2LjkzNzUgWiBNNzYyLjEyNSw3MTcuNzUgUTc2Mi4xMjUsNzE3Ljc1IDc2Mi4xMjUsNzIwLjU2MjUgTDc2My44NzUsNzIwLjU2MjUgUTc2My44NzUsNzIwLjU2MjUgNzYzLjg3NSw3MTcuNzUgTDc2Mi4xMjUsNzE3Ljc1IFogTTc1Ny44NzUsNzE4LjQzNzUgTDc2Mi44MTI1LDcxOC40Mzc1IEw3NjIuODEyNSw3MTYuNjg3NSBMNzU3Ljg3NSw3MTYuNjg3NSBMNzU3Ljg3NSw3MTguNDM3NSBaICIgZmlsbD0iIzAwMDAwMCIvPjx0ZXh0IGZpbGw9IiMwMDAwMDAiIGZvbnQtZmFtaWx5PSJzYW5zLXNlcmlmIiBmb250LXNpemU9IjE0IiBsZW5ndGhBZGp1c3Q9InNwYWNpbmciIHRleHRMZW5ndGg9IjM1IiB4PSI3ODAuNzUiIHk9IjcyNy43NDIyIj5PcmRlcjwvdGV4dD48bGluZSBzdHlsZT0ic3Ryb2tlOiMxODE4MTg7c3Ryb2tlLXdpZHRoOjAuNTsiIHgxPSI2OTUuNSIgeDI9Ijg2OC41IiB5MT0iNzM4IiB5Mj0iNzM4Ii8+PGVsbGlwc2UgY3g9IjcwNS41IiBjeT0iNzUwLjk5MjIiIGZpbGw9Im5vbmUiIHJ4PSIzIiByeT0iMyIgc3R5bGU9InN0cm9rZTojMDM4MDQ4O3N0cm9rZS13aWR0aDoxLjA7Ii8+PHRleHQgZmlsbD0iIzAwMDAwMCIgZm9udC1mYW1pbHk9InNhbnMtc2VyaWYiIGZvbnQtc2l6ZT0iMTQiIGxlbmd0aEFkanVzdD0ic3BhY2luZyIgdGV4dExlbmd0aD0iOTEiIHg9IjcxNC41IiB5PSI3NTUuMjM0NCI+b3JkZXJJZCA6IGludDwvdGV4dD48ZWxsaXBzZSBjeD0iNzA1LjUiIGN5PSI3NjUuOTc2NiIgZmlsbD0ibm9uZSIgcng9IjMiIHJ5PSIzIiBzdHlsZT0ic3Ryb2tlOiMwMzgwNDg7c3Ryb2tlLXdpZHRoOjEuMDsiLz48dGV4dCBmaWxsPSIjMDAwMDAwIiBmb250LWZhbWlseT0ic2Fucy1zZXJpZiIgZm9udC1zaXplPSIxNCIgbGVuZ3RoQWRqdXN0PSJzcGFjaW5nIiB0ZXh0TGVuZ3RoPSIxMTMiIHg9IjcxNC41IiB5PSI3NzAuMjE4OCI+Y3VzdG9tZXJJZCA6IGludDwvdGV4dD48ZWxsaXBzZSBjeD0iNzA1LjUiIGN5PSI3ODAuOTYwOSIgZmlsbD0ibm9uZSIgcng9IjMiIHJ5PSIzIiBzdHlsZT0ic3Ryb2tlOiMwMzgwNDg7c3Ryb2tlLXdpZHRoOjEuMDsiLz48dGV4dCBmaWxsPSIjMDAwMDAwIiBmb250LWZhbWlseT0ic2Fucy1zZXJpZiIgZm9udC1zaXplPSIxNCIgbGVuZ3RoQWRqdXN0PSJzcGFjaW5nIiB0ZXh0TGVuZ3RoPSIxNDkiIHg9IjcxNC41IiB5PSI3ODUuMjAzMSI+b3JkZXJEYXRlIDogdGltZXN0YW1wPC90ZXh0PjxlbGxpcHNlIGN4PSI3MDUuNSIgY3k9Ijc5NS45NDUzIiBmaWxsPSJub25lIiByeD0iMyIgcnk9IjMiIHN0eWxlPSJzdHJva2U6IzAzODA0ODtzdHJva2Utd2lkdGg6MS4wOyIvPjx0ZXh0IGZpbGw9IiMwMDAwMDAiIGZvbnQtZmFtaWx5PSJzYW5zLXNlcmlmIiBmb250LXNpemU9IjE0IiBsZW5ndGhBZGp1c3Q9InNwYWNpbmciIHRleHRMZW5ndGg9IjEyNiIgeD0iNzE0LjUiIHk9IjgwMC4xODc1Ij5vcmRlclR5cGUgOiBzdHJpbmc8L3RleHQ+PGVsbGlwc2UgY3g9IjcwNS41IiBjeT0iODEwLjkyOTciIGZpbGw9Im5vbmUiIHJ4PSIzIiByeT0iMyIgc3R5bGU9InN0cm9rZTojMDM4MDQ4O3N0cm9rZS13aWR0aDoxLjA7Ii8+PHRleHQgZmlsbD0iIzAwMDAwMCIgZm9udC1mYW1pbHk9InNhbnMtc2VyaWYiIGZvbnQtc2l6ZT0iMTQiIGxlbmd0aEFkanVzdD0ic3BhY2luZyIgdGV4dExlbmd0aD0iMTA1IiB4PSI3MTQuNSIgeT0iODE1LjE3MTkiPnN0YXR1cyA6IHN0cmluZzwvdGV4dD48bGluZSBzdHlsZT0ic3Ryb2tlOiMxODE4MTg7c3Ryb2tlLXdpZHRoOjAuNTsiIHgxPSI2OTUuNSIgeDI9Ijg2OC41IiB5MT0iODIwLjkyMTkiIHkyPSI4MjAuOTIxOSIvPjwvZz48IS0tY2xhc3MgUHJvZHVjdC0tPjxnIGlkPSJlbGVtX1Byb2R1Y3QiPjxyZWN0IGNvZGVMaW5lPSIzNSIgZmlsbD0iI0YxRjFGMSIgaGVpZ2h0PSIxMzcuOTA2MyIgaWQ9IlByb2R1Y3QiIHJ4PSIyLjUiIHJ5PSIyLjUiIHN0eWxlPSJzdHJva2U6IzE4MTgxODtzdHJva2Utd2lkdGg6MC41OyIgd2lkdGg9IjE2NyIgeD0iNjE1LjUiIHk9Ijg4OSIvPjxlbGxpcHNlIGN4PSI2NzAuMjUiIGN5PSI5MDUiIGZpbGw9IiNBREQxQjIiIHJ4PSIxMSIgcnk9IjExIiBzdHlsZT0ic3Ryb2tlOiMxODE4MTg7c3Ryb2tlLXdpZHRoOjEuMDsiLz48cGF0aCBkPSJNNjY3Ljg3NSw5MDkuMjUgTDY2Ny44NzUsOTExIEw2NzIuODEyNSw5MTEgTDY3Mi44MTI1LDkwOS4yNSBMNjY3Ljg3NSw5MDkuMjUgWiBNNjY4LjU2MjUsOTA5LjkzNzUgUTY2OC41NjI1LDkwOS45Mzc1IDY2OC41NjI1LDkwMC43NSBMNjY2LjgxMjUsOTAwLjc1IFE2NjYuODEyNSw5MDAuNzUgNjY2LjgxMjUsOTA5LjkzNzUgTDY2OC41NjI1LDkwOS45Mzc1IFogTTY3Mi4xMjUsOTA5LjkzNzUgTDY3My44NzUsOTA5LjkzNzUgUTY3My44NzUsOTA5LjkzNzUgNjczLjg3NSw5MDcuMTI1IEw2NzIuMTI1LDkwNy4xMjUgUTY3Mi4xMjUsOTA3LjEyNSA2NzIuMTI1LDkwOS45Mzc1IFogTTY3Mi4xMjUsOTAwLjc1IFE2NzIuMTI1LDkwMC43NSA2NzIuMTI1LDkwMy41NjI1IEw2NzMuODc1LDkwMy41NjI1IFE2NzMuODc1LDkwMy41NjI1IDY3My44NzUsOTAwLjc1IEw2NzIuMTI1LDkwMC43NSBaIE02NjcuODc1LDkwMS40Mzc1IEw2NzIuODEyNSw5MDEuNDM3NSBMNjcyLjgxMjUsODk5LjY4NzUgTDY2Ny44NzUsODk5LjY4NzUgTDY2Ny44NzUsOTAxLjQzNzUgWiAiIGZpbGw9IiMwMDAwMDAiLz48dGV4dCBmaWxsPSIjMDAwMDAwIiBmb250LWZhbWlseT0ic2Fucy1zZXJpZiIgZm9udC1zaXplPSIxNCIgbGVuZ3RoQWRqdXN0PSJzcGFjaW5nIiB0ZXh0TGVuZ3RoPSI0OSIgeD0iNjkwLjc1IiB5PSI5MTAuNzQyMiI+UHJvZHVjdDwvdGV4dD48bGluZSBzdHlsZT0ic3Ryb2tlOiMxODE4MTg7c3Ryb2tlLXdpZHRoOjAuNTsiIHgxPSI2MTYuNSIgeDI9Ijc4MS41IiB5MT0iOTIxIiB5Mj0iOTIxIi8+PGVsbGlwc2UgY3g9IjYyNi41IiBjeT0iOTMzLjk5MjIiIGZpbGw9Im5vbmUiIHJ4PSIzIiByeT0iMyIgc3R5bGU9InN0cm9rZTojMDM4MDQ4O3N0cm9rZS13aWR0aDoxLjA7Ii8+PHRleHQgZmlsbD0iIzAwMDAwMCIgZm9udC1mYW1pbHk9InNhbnMtc2VyaWYiIGZvbnQtc2l6ZT0iMTQiIGxlbmd0aEFkanVzdD0ic3BhY2luZyIgdGV4dExlbmd0aD0iMTA1IiB4PSI2MzUuNSIgeT0iOTM4LjIzNDQiPnByb2R1Y3RJZCA6IGludDwvdGV4dD48ZWxsaXBzZSBjeD0iNjI2LjUiIGN5PSI5NDguOTc2NiIgZmlsbD0ibm9uZSIgcng9IjMiIHJ5PSIzIiBzdHlsZT0ic3Ryb2tlOiMwMzgwNDg7c3Ryb2tlLXdpZHRoOjEuMDsiLz48dGV4dCBmaWxsPSIjMDAwMDAwIiBmb250LWZhbWlseT0ic2Fucy1zZXJpZiIgZm9udC1zaXplPSIxNCIgbGVuZ3RoQWRqdXN0PSJzcGFjaW5nIiB0ZXh0TGVuZ3RoPSIxNDEiIHg9IjYzNS41IiB5PSI5NTMuMjE4OCI+cHJvZHVjdE5hbWUgOiBzdHJpbmc8L3RleHQ+PGVsbGlwc2UgY3g9IjYyNi41IiBjeT0iOTYzLjk2MDkiIGZpbGw9Im5vbmUiIHJ4PSIzIiByeT0iMyIgc3R5bGU9InN0cm9rZTojMDM4MDQ4O3N0cm9rZS13aWR0aDoxLjA7Ii8+PHRleHQgZmlsbD0iIzAwMDAwMCIgZm9udC1mYW1pbHk9InNhbnMtc2VyaWYiIGZvbnQtc2l6ZT0iMTQiIGxlbmd0aEFkanVzdD0ic3BhY2luZyIgdGV4dExlbmd0aD0iMTQwIiB4PSI2MzUuNSIgeT0iOTY4LjIwMzEiPnByb2R1Y3RUeXBlIDogc3RyaW5nPC90ZXh0PjxlbGxpcHNlIGN4PSI2MjYuNSIgY3k9Ijk3OC45NDUzIiBmaWxsPSJub25lIiByeD0iMyIgcnk9IjMiIHN0eWxlPSJzdHJva2U6IzAzODA0ODtzdHJva2Utd2lkdGg6MS4wOyIvPjx0ZXh0IGZpbGw9IiMwMDAwMDAiIGZvbnQtZmFtaWx5PSJzYW5zLXNlcmlmIiBmb250LXNpemU9IjE0IiBsZW5ndGhBZGp1c3Q9InNwYWNpbmciIHRleHRMZW5ndGg9IjE0MCIgeD0iNjM1LjUiIHk9Ijk4My4xODc1Ij5kZXNjcmlwdGlvbiA6IHN0cmluZzwvdGV4dD48ZWxsaXBzZSBjeD0iNjI2LjUiIGN5PSI5OTMuOTI5NyIgZmlsbD0ibm9uZSIgcng9IjMiIHJ5PSIzIiBzdHlsZT0ic3Ryb2tlOiMwMzgwNDg7c3Ryb2tlLXdpZHRoOjEuMDsiLz48dGV4dCBmaWxsPSIjMDAwMDAwIiBmb250LWZhbWlseT0ic2Fucy1zZXJpZiIgZm9udC1zaXplPSIxNCIgbGVuZ3RoQWRqdXN0PSJzcGFjaW5nIiB0ZXh0TGVuZ3RoPSIxMDYiIHg9IjYzNS41IiB5PSI5OTguMTcxOSI+cHJpY2UgOiBkZWNpbWFsPC90ZXh0PjxsaW5lIHN0eWxlPSJzdHJva2U6IzE4MTgxODtzdHJva2Utd2lkdGg6MC41OyIgeDE9IjYxNi41IiB4Mj0iNzgxLjUiIHkxPSIxMDAzLjkyMTkiIHkyPSIxMDAzLjkyMTkiLz48ZWxsaXBzZSBjeD0iNjI2LjUiIGN5PSIxMDE2LjkxNDEiIGZpbGw9IiM4NEJFODQiIHJ4PSIzIiByeT0iMyIgc3R5bGU9InN0cm9rZTojMDM4MDQ4O3N0cm9rZS13aWR0aDoxLjA7Ii8+PHRleHQgZmlsbD0iIzAwMDAwMCIgZm9udC1mYW1pbHk9InNhbnMtc2VyaWYiIGZvbnQtc2l6ZT0iMTQiIGxlbmd0aEFkanVzdD0ic3BhY2luZyIgdGV4dExlbmd0aD0iNzkiIHg9IjYzNS41IiB5PSIxMDIxLjE1NjMiPnNoYXJlTGluaygpPC90ZXh0PjwvZz48IS0tY2xhc3MgVFZQbGFuLS0+PGcgaWQ9ImVsZW1fVFZQbGFuIj48cmVjdCBjb2RlTGluZT0iNDQiIGZpbGw9IiNGMUYxRjEiIGhlaWdodD0iNjIuOTg0NCIgaWQ9IlRWUGxhbiIgcng9IjIuNSIgcnk9IjIuNSIgc3R5bGU9InN0cm9rZTojMTgxODE4O3N0cm9rZS13aWR0aDowLjU7IiB3aWR0aD0iMTI0IiB4PSI3MTIiIHk9IjEwOTQuNSIvPjxlbGxpcHNlIGN4PSI3NDkuNSIgY3k9IjExMTAuNSIgZmlsbD0iI0FERDFCMiIgcng9IjExIiByeT0iMTEiIHN0eWxlPSJzdHJva2U6IzE4MTgxODtzdHJva2Utd2lkdGg6MS4wOyIvPjxwYXRoIGQ9Ik03NDcuMTI1LDExMTQuNzUgTDc0Ny4xMjUsMTExNi41IEw3NTIuMDYyNSwxMTE2LjUgTDc1Mi4wNjI1LDExMTQuNzUgTDc0Ny4xMjUsMTExNC43NSBaIE03NDcuODEyNSwxMTE1LjQzNzUgUTc0Ny44MTI1LDExMTUuNDM3NSA3NDcuODEyNSwxMTA2LjI1IEw3NDYuMDYyNSwxMTA2LjI1IFE3NDYuMDYyNSwxMTA2LjI1IDc0Ni4wNjI1LDExMTUuNDM3NSBMNzQ3LjgxMjUsMTExNS40Mzc1IFogTTc1MS4zNzUsMTExNS40Mzc1IEw3NTMuMTI1LDExMTUuNDM3NSBRNzUzLjEyNSwxMTE1LjQzNzUgNzUzLjEyNSwxMTEyLjYyNSBMNzUxLjM3NSwxMTEyLjYyNSBRNzUxLjM3NSwxMTEyLjYyNSA3NTEuMzc1LDExMTUuNDM3NSBaIE03NTEuMzc1LDExMDYuMjUgUTc1MS4zNzUsMTEwNi4yNSA3NTEuMzc1LDExMDkuMDYyNSBMNzUzLjEyNSwxMTA5LjA2MjUgUTc1My4xMjUsMTEwOS4wNjI1IDc1My4xMjUsMTEwNi4yNSBMNzUxLjM3NSwxMTA2LjI1IFogTTc0Ny4xMjUsMTEwNi45Mzc1IEw3NTIuMDYyNSwxMTA2LjkzNzUgTDc1Mi4wNjI1LDExMDUuMTg3NSBMNzQ3LjEyNSwxMTA1LjE4NzUgTDc0Ny4xMjUsMTEwNi45Mzc1IFogIiBmaWxsPSIjMDAwMDAwIi8+PHRleHQgZmlsbD0iIzAwMDAwMCIgZm9udC1mYW1pbHk9InNhbnMtc2VyaWYiIGZvbnQtc2l6ZT0iMTQiIGxlbmd0aEFkanVzdD0ic3BhY2luZyIgdGV4dExlbmd0aD0iNDIiIHg9Ijc2OC41IiB5PSIxMTE2LjI0MjIiPlRWUGxhbjwvdGV4dD48bGluZSBzdHlsZT0ic3Ryb2tlOiMxODE4MTg7c3Ryb2tlLXdpZHRoOjAuNTsiIHgxPSI3MTMiIHgyPSI4MzUiIHkxPSIxMTI2LjUiIHkyPSIxMTI2LjUiLz48ZWxsaXBzZSBjeD0iNzIzIiBjeT0iMTEzOS40OTIyIiBmaWxsPSJub25lIiByeD0iMyIgcnk9IjMiIHN0eWxlPSJzdHJva2U6IzAzODA0ODtzdHJva2Utd2lkdGg6MS4wOyIvPjx0ZXh0IGZpbGw9IiMwMDAwMDAiIGZvbnQtZmFtaWx5PSJzYW5zLXNlcmlmIiBmb250LXNpemU9IjE0IiBsZW5ndGhBZGp1c3Q9InNwYWNpbmciIHRleHRMZW5ndGg9Ijk4IiB4PSI3MzIiIHk9IjExNDMuNzM0NCI+Y2hhbm5lbHMgOiBpbnQ8L3RleHQ+PGxpbmUgc3R5bGU9InN0cm9rZTojMTgxODE4O3N0cm9rZS13aWR0aDowLjU7IiB4MT0iNzEzIiB4Mj0iODM1IiB5MT0iMTE0OS40ODQ0IiB5Mj0iMTE0OS40ODQ0Ii8+PC9nPjwhLS1jbGFzcyBJbnRlcm5ldFBsYW4tLT48ZyBpZD0iZWxlbV9JbnRlcm5ldFBsYW4iPjxyZWN0IGNvZGVMaW5lPSI0OCIgZmlsbD0iI0YxRjFGMSIgaGVpZ2h0PSI2Mi45ODQ0IiBpZD0iSW50ZXJuZXRQbGFuIiByeD0iMi41IiByeT0iMi41IiBzdHlsZT0ic3Ryb2tlOiMxODE4MTg7c3Ryb2tlLXdpZHRoOjAuNTsiIHdpZHRoPSIxMjQiIHg9Ijg3MSIgeT0iMTA5NC41Ii8+PGVsbGlwc2UgY3g9Ijg4OS42IiBjeT0iMTExMC41IiBmaWxsPSIjQUREMUIyIiByeD0iMTEiIHJ5PSIxMSIgc3R5bGU9InN0cm9rZTojMTgxODE4O3N0cm9rZS13aWR0aDoxLjA7Ii8+PHBhdGggZD0iTTg4Ny4yMjUsMTExNC43NSBMODg3LjIyNSwxMTE2LjUgTDg5Mi4xNjI1LDExMTYuNSBMODkyLjE2MjUsMTExNC43NSBMODg3LjIyNSwxMTE0Ljc1IFogTTg4Ny45MTI1LDExMTUuNDM3NSBRODg3LjkxMjUsMTExNS40Mzc1IDg4Ny45MTI1LDExMDYuMjUgTDg4Ni4xNjI1LDExMDYuMjUgUTg4Ni4xNjI1LDExMDYuMjUgODg2LjE2MjUsMTExNS40Mzc1IEw4ODcuOTEyNSwxMTE1LjQzNzUgWiBNODkxLjQ3NSwxMTE1LjQzNzUgTDg5My4yMjUsMTExNS40Mzc1IFE4OTMuMjI1LDExMTUuNDM3NSA4OTMuMjI1LDExMTIuNjI1IEw4OTEuNDc1LDExMTIuNjI1IFE4OTEuNDc1LDExMTIuNjI1IDg5MS40NzUsMTExNS40Mzc1IFogTTg5MS40NzUsMTEwNi4yNSBRODkxLjQ3NSwxMTA2LjI1IDg5MS40NzUsMTEwOS4wNjI1IEw4OTMuMjI1LDExMDkuMDYyNSBRODkzLjIyNSwxMTA5LjA2MjUgODkzLjIyNSwxMTA2LjI1IEw4OTEuNDc1LDExMDYuMjUgWiBNODg3LjIyNSwxMTA2LjkzNzUgTDg5Mi4xNjI1LDExMDYuOTM3NSBMODkyLjE2MjUsMTEwNS4xODc1IEw4ODcuMjI1LDExMDUuMTg3NSBMODg3LjIyNSwxMTA2LjkzNzUgWiAiIGZpbGw9IiMwMDAwMDAiLz48dGV4dCBmaWxsPSIjMDAwMDAwIiBmb250LWZhbWlseT0ic2Fucy1zZXJpZiIgZm9udC1zaXplPSIxNCIgbGVuZ3RoQWRqdXN0PSJzcGFjaW5nIiB0ZXh0TGVuZ3RoPSI4NCIgeD0iOTA0LjQiIHk9IjExMTYuMjQyMiI+SW50ZXJuZXRQbGFuPC90ZXh0PjxsaW5lIHN0eWxlPSJzdHJva2U6IzE4MTgxODtzdHJva2Utd2lkdGg6MC41OyIgeDE9Ijg3MiIgeDI9Ijk5NCIgeTE9IjExMjYuNSIgeTI9IjExMjYuNSIvPjxlbGxpcHNlIGN4PSI4ODIiIGN5PSIxMTM5LjQ5MjIiIGZpbGw9Im5vbmUiIHJ4PSIzIiByeT0iMyIgc3R5bGU9InN0cm9rZTojMDM4MDQ4O3N0cm9rZS13aWR0aDoxLjA7Ii8+PHRleHQgZmlsbD0iIzAwMDAwMCIgZm9udC1mYW1pbHk9InNhbnMtc2VyaWYiIGZvbnQtc2l6ZT0iMTQiIGxlbmd0aEFkanVzdD0ic3BhY2luZyIgdGV4dExlbmd0aD0iOTgiIHg9Ijg5MSIgeT0iMTE0My43MzQ0Ij5zcGVlZCA6IHN0cmluZzwvdGV4dD48bGluZSBzdHlsZT0ic3Ryb2tlOiMxODE4MTg7c3Ryb2tlLXdpZHRoOjAuNTsiIHgxPSI4NzIiIHgyPSI5OTQiIHkxPSIxMTQ5LjQ4NDQiIHkyPSIxMTQ5LjQ4NDQiLz48L2c+PCEtLWNsYXNzIFBQVkV2ZW50LS0+PGcgaWQ9ImVsZW1fUFBWRXZlbnQiPjxyZWN0IGNvZGVMaW5lPSI1MiIgZmlsbD0iI0YxRjFGMSIgaGVpZ2h0PSI2Mi45ODQ0IiBpZD0iUFBWRXZlbnQiIHJ4PSIyLjUiIHJ5PSIyLjUiIHN0eWxlPSJzdHJva2U6IzE4MTgxODtzdHJva2Utd2lkdGg6MC41OyIgd2lkdGg9IjE3NSIgeD0iMzYyLjUiIHk9IjEwOTQuNSIvPjxlbGxpcHNlIGN4PSI0MTcuNzUiIGN5PSIxMTEwLjUiIGZpbGw9IiNBREQxQjIiIHJ4PSIxMSIgcnk9IjExIiBzdHlsZT0ic3Ryb2tlOiMxODE4MTg7c3Ryb2tlLXdpZHRoOjEuMDsiLz48cGF0aCBkPSJNNDE1LjM3NSwxMTE0Ljc1IEw0MTUuMzc1LDExMTYuNSBMNDIwLjMxMjUsMTExNi41IEw0MjAuMzEyNSwxMTE0Ljc1IEw0MTUuMzc1LDExMTQuNzUgWiBNNDE2LjA2MjUsMTExNS40Mzc1IFE0MTYuMDYyNSwxMTE1LjQzNzUgNDE2LjA2MjUsMTEwNi4yNSBMNDE0LjMxMjUsMTEwNi4yNSBRNDE0LjMxMjUsMTEwNi4yNSA0MTQuMzEyNSwxMTE1LjQzNzUgTDQxNi4wNjI1LDExMTUuNDM3NSBaIE00MTkuNjI1LDExMTUuNDM3NSBMNDIxLjM3NSwxMTE1LjQzNzUgUTQyMS4zNzUsMTExNS40Mzc1IDQyMS4zNzUsMTExMi42MjUgTDQxOS42MjUsMTExMi42MjUgUTQxOS42MjUsMTExMi42MjUgNDE5LjYyNSwxMTE1LjQzNzUgWiBNNDE5LjYyNSwxMTA2LjI1IFE0MTkuNjI1LDExMDYuMjUgNDE5LjYyNSwxMTA5LjA2MjUgTDQyMS4zNzUsMTEwOS4wNjI1IFE0MjEuMzc1LDExMDkuMDYyNSA0MjEuMzc1LDExMDYuMjUgTDQxOS42MjUsMTEwNi4yNSBaIE00MTUuMzc1LDExMDYuOTM3NSBMNDIwLjMxMjUsMTEwNi45Mzc1IEw0MjAuMzEyNSwxMTA1LjE4NzUgTDQxNS4zNzUsMTEwNS4xODc1IEw0MTUuMzc1LDExMDYuOTM3NSBaICIgZmlsbD0iIzAwMDAwMCIvPjx0ZXh0IGZpbGw9IiMwMDAwMDAiIGZvbnQtZmFtaWx5PSJzYW5zLXNlcmlmIiBmb250LXNpemU9IjE0IiBsZW5ndGhBZGp1c3Q9InNwYWNpbmciIHRleHRMZW5ndGg9IjU2IiB4PSI0MzguMjUiIHk9IjExMTYuMjQyMiI+UFBWRXZlbnQ8L3RleHQ+PGxpbmUgc3R5bGU9InN0cm9rZTojMTgxODE4O3N0cm9rZS13aWR0aDowLjU7IiB4MT0iMzYzLjUiIHgyPSI1MzYuNSIgeTE9IjExMjYuNSIgeTI9IjExMjYuNSIvPjxlbGxpcHNlIGN4PSIzNzMuNSIgY3k9IjExMzkuNDkyMiIgZmlsbD0ibm9uZSIgcng9IjMiIHJ5PSIzIiBzdHlsZT0ic3Ryb2tlOiMwMzgwNDg7c3Ryb2tlLXdpZHRoOjEuMDsiLz48dGV4dCBmaWxsPSIjMDAwMDAwIiBmb250LWZhbWlseT0ic2Fucy1zZXJpZiIgZm9udC1zaXplPSIxNCIgbGVuZ3RoQWRqdXN0PSJzcGFjaW5nIiB0ZXh0TGVuZ3RoPSIxNDkiIHg9IjM4Mi41IiB5PSIxMTQzLjczNDQiPmV2ZW50RGF0ZSA6IHRpbWVzdGFtcDwvdGV4dD48bGluZSBzdHlsZT0ic3Ryb2tlOiMxODE4MTg7c3Ryb2tlLXdpZHRoOjAuNTsiIHgxPSIzNjMuNSIgeDI9IjUzNi41IiB5MT0iMTE0OS40ODQ0IiB5Mj0iMTE0OS40ODQ0Ii8+PC9nPjwhLS1jbGFzcyBHYW1lUmVudGFsLS0+PGcgaWQ9ImVsZW1fR2FtZVJlbnRhbCI+PHJlY3QgY29kZUxpbmU9IjU2IiBmaWxsPSIjRjFGMUYxIiBoZWlnaHQ9IjYyLjk4NDQiIGlkPSJHYW1lUmVudGFsIiByeD0iMi41IiByeT0iMi41IiBzdHlsZT0ic3Ryb2tlOiMxODE4MTg7c3Ryb2tlLXdpZHRoOjAuNTsiIHdpZHRoPSIxMDQiIHg9IjU3MyIgeT0iMTA5NC41Ii8+PGVsbGlwc2UgY3g9IjU4OC40NSIgY3k9IjExMTAuNSIgZmlsbD0iI0FERDFCMiIgcng9IjExIiByeT0iMTEiIHN0eWxlPSJzdHJva2U6IzE4MTgxODtzdHJva2Utd2lkdGg6MS4wOyIvPjxwYXRoIGQ9Ik01ODYuMDc1LDExMTQuNzUgTDU4Ni4wNzUsMTExNi41IEw1OTEuMDEyNSwxMTE2LjUgTDU5MS4wMTI1LDExMTQuNzUgTDU4Ni4wNzUsMTExNC43NSBaIE01ODYuNzYyNSwxMTE1LjQzNzUgUTU4Ni43NjI1LDExMTUuNDM3NSA1ODYuNzYyNSwxMTA2LjI1IEw1ODUuMDEyNSwxMTA2LjI1IFE1ODUuMDEyNSwxMTA2LjI1IDU4NS4wMTI1LDExMTUuNDM3NSBMNTg2Ljc2MjUsMTExNS40Mzc1IFogTTU5MC4zMjUsMTExNS40Mzc1IEw1OTIuMDc1LDExMTUuNDM3NSBRNTkyLjA3NSwxMTE1LjQzNzUgNTkyLjA3NSwxMTEyLjYyNSBMNTkwLjMyNSwxMTEyLjYyNSBRNTkwLjMyNSwxMTEyLjYyNSA1OTAuMzI1LDExMTUuNDM3NSBaIE01OTAuMzI1LDExMDYuMjUgUTU5MC4zMjUsMTEwNi4yNSA1OTAuMzI1LDExMDkuMDYyNSBMNTkyLjA3NSwxMTA5LjA2MjUgUTU5Mi4wNzUsMTEwOS4wNjI1IDU5Mi4wNzUsMTEwNi4yNSBMNTkwLjMyNSwxMTA2LjI1IFogTTU4Ni4wNzUsMTEwNi45Mzc1IEw1OTEuMDEyNSwxMTA2LjkzNzUgTDU5MS4wMTI1LDExMDUuMTg3NSBMNTg2LjA3NSwxMTA1LjE4NzUgTDU4Ni4wNzUsMTEwNi45Mzc1IFogIiBmaWxsPSIjMDAwMDAwIi8+PHRleHQgZmlsbD0iIzAwMDAwMCIgZm9udC1mYW1pbHk9InNhbnMtc2VyaWYiIGZvbnQtc2l6ZT0iMTQiIGxlbmd0aEFkanVzdD0ic3BhY2luZyIgdGV4dExlbmd0aD0iNzEiIHg9IjYwMi41NSIgeT0iMTExNi4yNDIyIj5HYW1lUmVudGFsPC90ZXh0PjxsaW5lIHN0eWxlPSJzdHJva2U6IzE4MTgxODtzdHJva2Utd2lkdGg6MC41OyIgeDE9IjU3NCIgeDI9IjY3NiIgeTE9IjExMjYuNSIgeTI9IjExMjYuNSIvPjxlbGxpcHNlIGN4PSI1ODQiIGN5PSIxMTM5LjQ5MjIiIGZpbGw9Im5vbmUiIHJ4PSIzIiByeT0iMyIgc3R5bGU9InN0cm9rZTojMDM4MDQ4O3N0cm9rZS13aWR0aDoxLjA7Ii8+PHRleHQgZmlsbD0iIzAwMDAwMCIgZm9udC1mYW1pbHk9InNhbnMtc2VyaWYiIGZvbnQtc2l6ZT0iMTQiIGxlbmd0aEFkanVzdD0ic3BhY2luZyIgdGV4dExlbmd0aD0iNzgiIHg9IjU5MyIgeT0iMTE0My43MzQ0Ij5nYW1lcyA6IGludDwvdGV4dD48bGluZSBzdHlsZT0ic3Ryb2tlOiMxODE4MTg7c3Ryb2tlLXdpZHRoOjAuNTsiIHgxPSI1NzQiIHgyPSI2NzYiIHkxPSIxMTQ5LjQ4NDQiIHkyPSIxMTQ5LjQ4NDQiLz48L2c+PCEtLWNsYXNzIEluY2lkZW50VGlja2V0LS0+PGcgaWQ9ImVsZW1fSW5jaWRlbnRUaWNrZXQiPjxyZWN0IGNvZGVMaW5lPSI2MCIgZmlsbD0iI0YxRjFGMSIgaGVpZ2h0PSIxNjcuODc1IiBpZD0iSW5jaWRlbnRUaWNrZXQiIHJ4PSIyLjUiIHJ5PSIyLjUiIHN0eWxlPSJzdHJva2U6IzE4MTgxODtzdHJva2Utd2lkdGg6MC41OyIgd2lkdGg9IjE4MiIgeD0iOTI5IiB5PSIxNDUiLz48ZWxsaXBzZSBjeD0iOTY3LjQiIGN5PSIxNjEiIGZpbGw9IiNBREQxQjIiIHJ4PSIxMSIgcnk9IjExIiBzdHlsZT0ic3Ryb2tlOiMxODE4MTg7c3Ryb2tlLXdpZHRoOjEuMDsiLz48cGF0aCBkPSJNOTY1LjAyNSwxNjUuMjUgTDk2NS4wMjUsMTY3IEw5NjkuOTYyNSwxNjcgTDk2OS45NjI1LDE2NS4yNSBMOTY1LjAyNSwxNjUuMjUgWiBNOTY1LjcxMjUsMTY1LjkzNzUgUTk2NS43MTI1LDE2NS45Mzc1IDk2NS43MTI1LDE1Ni43NSBMOTYzLjk2MjUsMTU2Ljc1IFE5NjMuOTYyNSwxNTYuNzUgOTYzLjk2MjUsMTY1LjkzNzUgTDk2NS43MTI1LDE2NS45Mzc1IFogTTk2OS4yNzUsMTY1LjkzNzUgTDk3MS4wMjUsMTY1LjkzNzUgUTk3MS4wMjUsMTY1LjkzNzUgOTcxLjAyNSwxNjMuMTI1IEw5NjkuMjc1LDE2My4xMjUgUTk2OS4yNzUsMTYzLjEyNSA5NjkuMjc1LDE2NS45Mzc1IFogTTk2OS4yNzUsMTU2Ljc1IFE5NjkuMjc1LDE1Ni43NSA5NjkuMjc1LDE1OS41NjI1IEw5NzEuMDI1LDE1OS41NjI1IFE5NzEuMDI1LDE1OS41NjI1IDk3MS4wMjUsMTU2Ljc1IEw5NjkuMjc1LDE1Ni43NSBaIE05NjUuMDI1LDE1Ny40Mzc1IEw5NjkuOTYyNSwxNTcuNDM3NSBMOTY5Ljk2MjUsMTU1LjY4NzUgTDk2NS4wMjUsMTU1LjY4NzUgTDk2NS4wMjUsMTU3LjQzNzUgWiAiIGZpbGw9IiMwMDAwMDAiLz48dGV4dCBmaWxsPSIjMDAwMDAwIiBmb250LWZhbWlseT0ic2Fucy1zZXJpZiIgZm9udC1zaXplPSIxNCIgbGVuZ3RoQWRqdXN0PSJzcGFjaW5nIiB0ZXh0TGVuZ3RoPSI5OCIgeD0iOTg2LjYiIHk9IjE2Ni43NDIyIj5JbmNpZGVudFRpY2tldDwvdGV4dD48bGluZSBzdHlsZT0ic3Ryb2tlOiMxODE4MTg7c3Ryb2tlLXdpZHRoOjAuNTsiIHgxPSI5MzAiIHgyPSIxMTEwIiB5MT0iMTc3IiB5Mj0iMTc3Ii8+PGVsbGlwc2UgY3g9Ijk0MCIgY3k9IjE4OS45OTIyIiBmaWxsPSJub25lIiByeD0iMyIgcnk9IjMiIHN0eWxlPSJzdHJva2U6IzAzODA0ODtzdHJva2Utd2lkdGg6MS4wOyIvPjx0ZXh0IGZpbGw9IiMwMDAwMDAiIGZvbnQtZmFtaWx5PSJzYW5zLXNlcmlmIiBmb250LXNpemU9IjE0IiBsZW5ndGhBZGp1c3Q9InNwYWNpbmciIHRleHRMZW5ndGg9Ijk4IiB4PSI5NDkiIHk9IjE5NC4yMzQ0Ij50aWNrZXRJZCA6IGludDwvdGV4dD48ZWxsaXBzZSBjeD0iOTQwIiBjeT0iMjA0Ljk3NjYiIGZpbGw9Im5vbmUiIHJ4PSIzIiByeT0iMyIgc3R5bGU9InN0cm9rZTojMDM4MDQ4O3N0cm9rZS13aWR0aDoxLjA7Ii8+PHRleHQgZmlsbD0iIzAwMDAwMCIgZm9udC1mYW1pbHk9InNhbnMtc2VyaWYiIGZvbnQtc2l6ZT0iMTQiIGxlbmd0aEFkanVzdD0ic3BhY2luZyIgdGV4dExlbmd0aD0iMTEzIiB4PSI5NDkiIHk9IjIwOS4yMTg4Ij5jdXN0b21lcklkIDogaW50PC90ZXh0PjxlbGxpcHNlIGN4PSI5NDAiIGN5PSIyMTkuOTYwOSIgZmlsbD0ibm9uZSIgcng9IjMiIHJ5PSIzIiBzdHlsZT0ic3Ryb2tlOiMwMzgwNDg7c3Ryb2tlLXdpZHRoOjEuMDsiLz48dGV4dCBmaWxsPSIjMDAwMDAwIiBmb250LWZhbWlseT0ic2Fucy1zZXJpZiIgZm9udC1zaXplPSIxNCIgbGVuZ3RoQWRqdXN0PSJzcGFjaW5nIiB0ZXh0TGVuZ3RoPSIxMjYiIHg9Ijk0OSIgeT0iMjI0LjIwMzEiPnRlY2huaWNpYW5JZCA6IGludDwvdGV4dD48ZWxsaXBzZSBjeD0iOTQwIiBjeT0iMjM0Ljk0NTMiIGZpbGw9Im5vbmUiIHJ4PSIzIiByeT0iMyIgc3R5bGU9InN0cm9rZTojMDM4MDQ4O3N0cm9rZS13aWR0aDoxLjA7Ii8+PHRleHQgZmlsbD0iIzAwMDAwMCIgZm9udC1mYW1pbHk9InNhbnMtc2VyaWYiIGZvbnQtc2l6ZT0iMTQiIGxlbmd0aEFkanVzdD0ic3BhY2luZyIgdGV4dExlbmd0aD0iMTU2IiB4PSI5NDkiIHk9IjIzOS4xODc1Ij50aWNrZXREYXRlIDogdGltZXN0YW1wPC90ZXh0PjxlbGxpcHNlIGN4PSI5NDAiIGN5PSIyNDkuOTI5NyIgZmlsbD0ibm9uZSIgcng9IjMiIHJ5PSIzIiBzdHlsZT0ic3Ryb2tlOiMwMzgwNDg7c3Ryb2tlLXdpZHRoOjEuMDsiLz48dGV4dCBmaWxsPSIjMDAwMDAwIiBmb250LWZhbWlseT0ic2Fucy1zZXJpZiIgZm9udC1zaXplPSIxNCIgbGVuZ3RoQWRqdXN0PSJzcGFjaW5nIiB0ZXh0TGVuZ3RoPSIxMDUiIHg9Ijk0OSIgeT0iMjU0LjE3MTkiPnN0YXR1cyA6IHN0cmluZzwvdGV4dD48bGluZSBzdHlsZT0ic3Ryb2tlOiMxODE4MTg7c3Ryb2tlLXdpZHRoOjAuNTsiIHgxPSI5MzAiIHgyPSIxMTEwIiB5MT0iMjU5LjkyMTkiIHkyPSIyNTkuOTIxOSIvPjxlbGxpcHNlIGN4PSI5NDAiIGN5PSIyNzIuOTE0MSIgZmlsbD0iIzg0QkU4NCIgcng9IjMiIHJ5PSIzIiBzdHlsZT0ic3Ryb2tlOiMwMzgwNDg7c3Ryb2tlLXdpZHRoOjEuMDsiLz48dGV4dCBmaWxsPSIjMDAwMDAwIiBmb250LWZhbWlseT0ic2Fucy1zZXJpZiIgZm9udC1zaXplPSIxNCIgbGVuZ3RoQWRqdXN0PSJzcGFjaW5nIiB0ZXh0TGVuZ3RoPSI3MiIgeD0iOTQ5IiB5PSIyNzcuMTU2MyI+c2NoZWR1bGUoKTwvdGV4dD48ZWxsaXBzZSBjeD0iOTQwIiBjeT0iMjg3Ljg5ODQiIGZpbGw9IiM4NEJFODQiIHJ4PSIzIiByeT0iMyIgc3R5bGU9InN0cm9rZTojMDM4MDQ4O3N0cm9rZS13aWR0aDoxLjA7Ii8+PHRleHQgZmlsbD0iIzAwMDAwMCIgZm9udC1mYW1pbHk9InNhbnMtc2VyaWYiIGZvbnQtc2l6ZT0iMTQiIGxlbmd0aEFkanVzdD0ic3BhY2luZyIgdGV4dExlbmd0aD0iNTEiIHg9Ijk0OSIgeT0iMjkyLjE0MDYiPmNsb3NlKCk8L3RleHQ+PGVsbGlwc2UgY3g9Ijk0MCIgY3k9IjMwMi44ODI4IiBmaWxsPSIjODRCRTg0IiByeD0iMyIgcnk9IjMiIHN0eWxlPSJzdHJva2U6IzAzODA0ODtzdHJva2Utd2lkdGg6MS4wOyIvPjx0ZXh0IGZpbGw9IiMwMDAwMDAiIGZvbnQtZmFtaWx5PSJzYW5zLXNlcmlmIiBmb250LXNpemU9IjE0IiBsZW5ndGhBZGp1c3Q9InNwYWNpbmciIHRleHRMZW5ndGg9IjU4IiB4PSI5NDkiIHk9IjMwNy4xMjUiPmNhbmNlbCgpPC90ZXh0PjwvZz48IS0tY2xhc3MgVXNlci0tPjxnIGlkPSJlbGVtX1VzZXIiPjxyZWN0IGNvZGVMaW5lPSI3MSIgZmlsbD0iI0YxRjFGMSIgaGVpZ2h0PSIxMDcuOTM3NSIgaWQ9IlVzZXIiIHJ4PSIyLjUiIHJ5PSIyLjUiIHN0eWxlPSJzdHJva2U6IzE4MTgxODtzdHJva2Utd2lkdGg6MC41OyIgd2lkdGg9IjE0NiIgeD0iMTIxOCIgeT0iNDU1LjUiLz48ZWxsaXBzZSBjeD0iMTI3Mi43NSIgY3k9IjQ3MS41IiBmaWxsPSIjQUREMUIyIiByeD0iMTEiIHJ5PSIxMSIgc3R5bGU9InN0cm9rZTojMTgxODE4O3N0cm9rZS13aWR0aDoxLjA7Ii8+PHBhdGggZD0iTTEyNzAuMzc1LDQ3NS43NSBMMTI3MC4zNzUsNDc3LjUgTDEyNzUuMzEyNSw0NzcuNSBMMTI3NS4zMTI1LDQ3NS43NSBMMTI3MC4zNzUsNDc1Ljc1IFogTTEyNzEuMDYyNSw0NzYuNDM3NSBRMTI3MS4wNjI1LDQ3Ni40Mzc1IDEyNzEuMDYyNSw0NjcuMjUgTDEyNjkuMzEyNSw0NjcuMjUgUTEyNjkuMzEyNSw0NjcuMjUgMTI2OS4zMTI1LDQ3Ni40Mzc1IEwxMjcxLjA2MjUsNDc2LjQzNzUgWiBNMTI3NC42MjUsNDc2LjQzNzUgTDEyNzYuMzc1LDQ3Ni40Mzc1IFExMjc2LjM3NSw0NzYuNDM3NSAxMjc2LjM3NSw0NzMuNjI1IEwxMjc0LjYyNSw0NzMuNjI1IFExMjc0LjYyNSw0NzMuNjI1IDEyNzQuNjI1LDQ3Ni40Mzc1IFogTTEyNzQuNjI1LDQ2Ny4yNSBRMTI3NC42MjUsNDY3LjI1IDEyNzQuNjI1LDQ3MC4wNjI1IEwxMjc2LjM3NSw0NzAuMDYyNSBRMTI3Ni4zNzUsNDcwLjA2MjUgMTI3Ni4zNzUsNDY3LjI1IEwxMjc0LjYyNSw0NjcuMjUgWiBNMTI3MC4zNzUsNDY3LjkzNzUgTDEyNzUuMzEyNSw0NjcuOTM3NSBMMTI3NS4zMTI1LDQ2Ni4xODc1IEwxMjcwLjM3NSw0NjYuMTg3NSBMMTI3MC4zNzUsNDY3LjkzNzUgWiAiIGZpbGw9IiMwMDAwMDAiLz48dGV4dCBmaWxsPSIjMDAwMDAwIiBmb250LWZhbWlseT0ic2Fucy1zZXJpZiIgZm9udC1zaXplPSIxNCIgbGVuZ3RoQWRqdXN0PSJzcGFjaW5nIiB0ZXh0TGVuZ3RoPSIyOCIgeD0iMTI5My4yNSIgeT0iNDc3LjI0MjIiPlVzZXI8L3RleHQ+PGxpbmUgc3R5bGU9InN0cm9rZTojMTgxODE4O3N0cm9rZS13aWR0aDowLjU7IiB4MT0iMTIxOSIgeDI9IjEzNjMiIHkxPSI0ODcuNSIgeTI9IjQ4Ny41Ii8+PGVsbGlwc2UgY3g9IjEyMjkiIGN5PSI1MDAuNDkyMiIgZmlsbD0ibm9uZSIgcng9IjMiIHJ5PSIzIiBzdHlsZT0ic3Ryb2tlOiMwMzgwNDg7c3Ryb2tlLXdpZHRoOjEuMDsiLz48dGV4dCBmaWxsPSIjMDAwMDAwIiBmb250LWZhbWlseT0ic2Fucy1zZXJpZiIgZm9udC1zaXplPSIxNCIgbGVuZ3RoQWRqdXN0PSJzcGFjaW5nIiB0ZXh0TGVuZ3RoPSI4NCIgeD0iMTIzOCIgeT0iNTA0LjczNDQiPnVzZXJJZCA6IGludDwvdGV4dD48ZWxsaXBzZSBjeD0iMTIyOSIgY3k9IjUxNS40NzY2IiBmaWxsPSJub25lIiByeD0iMyIgcnk9IjMiIHN0eWxlPSJzdHJva2U6IzAzODA0ODtzdHJva2Utd2lkdGg6MS4wOyIvPjx0ZXh0IGZpbGw9IiMwMDAwMDAiIGZvbnQtZmFtaWx5PSJzYW5zLXNlcmlmIiBmb250LXNpemU9IjE0IiBsZW5ndGhBZGp1c3Q9InNwYWNpbmciIHRleHRMZW5ndGg9IjEyMCIgeD0iMTIzOCIgeT0iNTE5LjcxODgiPnVzZXJuYW1lIDogc3RyaW5nPC90ZXh0PjxlbGxpcHNlIGN4PSIxMjI5IiBjeT0iNTMwLjQ2MDkiIGZpbGw9Im5vbmUiIHJ4PSIzIiByeT0iMyIgc3R5bGU9InN0cm9rZTojMDM4MDQ4O3N0cm9rZS13aWR0aDoxLjA7Ii8+PHRleHQgZmlsbD0iIzAwMDAwMCIgZm9udC1mYW1pbHk9InNhbnMtc2VyaWYiIGZvbnQtc2l6ZT0iMTQiIGxlbmd0aEFkanVzdD0ic3BhY2luZyIgdGV4dExlbmd0aD0iMTIwIiB4PSIxMjM4IiB5PSI1MzQuNzAzMSI+cGFzc3dvcmQgOiBzdHJpbmc8L3RleHQ+PGVsbGlwc2UgY3g9IjEyMjkiIGN5PSI1NDUuNDQ1MyIgZmlsbD0ibm9uZSIgcng9IjMiIHJ5PSIzIiBzdHlsZT0ic3Ryb2tlOiMwMzgwNDg7c3Ryb2tlLXdpZHRoOjEuMDsiLz48dGV4dCBmaWxsPSIjMDAwMDAwIiBmb250LWZhbWlseT0ic2Fucy1zZXJpZiIgZm9udC1zaXplPSIxNCIgbGVuZ3RoQWRqdXN0PSJzcGFjaW5nIiB0ZXh0TGVuZ3RoPSI5MSIgeD0iMTIzOCIgeT0iNTQ5LjY4NzUiPnJvbGUgOiBzdHJpbmc8L3RleHQ+PGxpbmUgc3R5bGU9InN0cm9rZTojMTgxODE4O3N0cm9rZS13aWR0aDowLjU7IiB4MT0iMTIxOSIgeDI9IjEzNjMiIHkxPSI1NTUuNDM3NSIgeTI9IjU1NS40Mzc1Ii8+PC9nPjwhLS1jbGFzcyBSZXZpZXctLT48ZyBpZD0iZWxlbV9SZXZpZXciPjxyZWN0IGNvZGVMaW5lPSI3OCIgZmlsbD0iI0YxRjFGMSIgaGVpZ2h0PSIxMjIuOTIxOSIgaWQ9IlJldmlldyIgcng9IjIuNSIgcnk9IjIuNSIgc3R5bGU9InN0cm9rZTojMTgxODE4O3N0cm9rZS13aWR0aDowLjU7IiB3aWR0aD0iMTQwIiB4PSI1NTMiIHk9IjE2Ny41Ii8+PGVsbGlwc2UgY3g9IjU5Ny4yNSIgY3k9IjE4My41IiBmaWxsPSIjQUREMUIyIiByeD0iMTEiIHJ5PSIxMSIgc3R5bGU9InN0cm9rZTojMTgxODE4O3N0cm9rZS13aWR0aDoxLjA7Ii8+PHBhdGggZD0iTTU5NC44NzUsMTg3Ljc1IEw1OTQuODc1LDE4OS41IEw1OTkuODEyNSwxODkuNSBMNTk5LjgxMjUsMTg3Ljc1IEw1OTQuODc1LDE4Ny43NSBaIE01OTUuNTYyNSwxODguNDM3NSBRNTk1LjU2MjUsMTg4LjQzNzUgNTk1LjU2MjUsMTc5LjI1IEw1OTMuODEyNSwxNzkuMjUgUTU5My44MTI1LDE3OS4yNSA1OTMuODEyNSwxODguNDM3NSBMNTk1LjU2MjUsMTg4LjQzNzUgWiBNNTk5LjEyNSwxODguNDM3NSBMNjAwLjg3NSwxODguNDM3NSBRNjAwLjg3NSwxODguNDM3NSA2MDAuODc1LDE4NS42MjUgTDU5OS4xMjUsMTg1LjYyNSBRNTk5LjEyNSwxODUuNjI1IDU5OS4xMjUsMTg4LjQzNzUgWiBNNTk5LjEyNSwxNzkuMjUgUTU5OS4xMjUsMTc5LjI1IDU5OS4xMjUsMTgyLjA2MjUgTDYwMC44NzUsMTgyLjA2MjUgUTYwMC44NzUsMTgyLjA2MjUgNjAwLjg3NSwxNzkuMjUgTDU5OS4xMjUsMTc5LjI1IFogTTU5NC44NzUsMTc5LjkzNzUgTDU5OS44MTI1LDE3OS45Mzc1IEw1OTkuODEyNSwxNzguMTg3NSBMNTk0Ljg3NSwxNzguMTg3NSBMNTk0Ljg3NSwxNzkuOTM3NSBaICIgZmlsbD0iIzAwMDAwMCIvPjx0ZXh0IGZpbGw9IiMwMDAwMDAiIGZvbnQtZmFtaWx5PSJzYW5zLXNlcmlmIiBmb250LXNpemU9IjE0IiBsZW5ndGhBZGp1c3Q9InNwYWNpbmciIHRleHRMZW5ndGg9IjQzIiB4PSI2MTcuNzUiIHk9IjE4OS4yNDIyIj5SZXZpZXc8L3RleHQ+PGxpbmUgc3R5bGU9InN0cm9rZTojMTgxODE4O3N0cm9rZS13aWR0aDowLjU7IiB4MT0iNTU0IiB4Mj0iNjkyIiB5MT0iMTk5LjUiIHkyPSIxOTkuNSIvPjxlbGxpcHNlIGN4PSI1NjQiIGN5PSIyMTIuNDkyMiIgZmlsbD0ibm9uZSIgcng9IjMiIHJ5PSIzIiBzdHlsZT0ic3Ryb2tlOiMwMzgwNDg7c3Ryb2tlLXdpZHRoOjEuMDsiLz48dGV4dCBmaWxsPSIjMDAwMDAwIiBmb250LWZhbWlseT0ic2Fucy1zZXJpZiIgZm9udC1zaXplPSIxNCIgbGVuZ3RoQWRqdXN0PSJzcGFjaW5nIiB0ZXh0TGVuZ3RoPSI5OSIgeD0iNTczIiB5PSIyMTYuNzM0NCI+cmV2aWV3SWQgOiBpbnQ8L3RleHQ+PGVsbGlwc2UgY3g9IjU2NCIgY3k9IjIyNy40NzY2IiBmaWxsPSJub25lIiByeD0iMyIgcnk9IjMiIHN0eWxlPSJzdHJva2U6IzAzODA0ODtzdHJva2Utd2lkdGg6MS4wOyIvPjx0ZXh0IGZpbGw9IiMwMDAwMDAiIGZvbnQtZmFtaWx5PSJzYW5zLXNlcmlmIiBmb250LXNpemU9IjE0IiBsZW5ndGhBZGp1c3Q9InNwYWNpbmciIHRleHRMZW5ndGg9IjExMyIgeD0iNTczIiB5PSIyMzEuNzE4OCI+Y3VzdG9tZXJJZCA6IGludDwvdGV4dD48ZWxsaXBzZSBjeD0iNTY0IiBjeT0iMjQyLjQ2MDkiIGZpbGw9Im5vbmUiIHJ4PSIzIiByeT0iMyIgc3R5bGU9InN0cm9rZTojMDM4MDQ4O3N0cm9rZS13aWR0aDoxLjA7Ii8+PHRleHQgZmlsbD0iIzAwMDAwMCIgZm9udC1mYW1pbHk9InNhbnMtc2VyaWYiIGZvbnQtc2l6ZT0iMTQiIGxlbmd0aEFkanVzdD0ic3BhY2luZyIgdGV4dExlbmd0aD0iMTA1IiB4PSI1NzMiIHk9IjI0Ni43MDMxIj5wcm9kdWN0SWQgOiBpbnQ8L3RleHQ+PGVsbGlwc2UgY3g9IjU2NCIgY3k9IjI1Ny40NDUzIiBmaWxsPSJub25lIiByeD0iMyIgcnk9IjMiIHN0eWxlPSJzdHJva2U6IzAzODA0ODtzdHJva2Utd2lkdGg6MS4wOyIvPjx0ZXh0IGZpbGw9IiMwMDAwMDAiIGZvbnQtZmFtaWx5PSJzYW5zLXNlcmlmIiBmb250LXNpemU9IjE0IiBsZW5ndGhBZGp1c3Q9InNwYWNpbmciIHRleHRMZW5ndGg9Ijg0IiB4PSI1NzMiIHk9IjI2MS42ODc1Ij5yYXRpbmcgOiBpbnQ8L3RleHQ+PGVsbGlwc2UgY3g9IjU2NCIgY3k9IjI3Mi40Mjk3IiBmaWxsPSJub25lIiByeD0iMyIgcnk9IjMiIHN0eWxlPSJzdHJva2U6IzAzODA0ODtzdHJva2Utd2lkdGg6MS4wOyIvPjx0ZXh0IGZpbGw9IiMwMDAwMDAiIGZvbnQtZmFtaWx5PSJzYW5zLXNlcmlmIiBmb250LXNpemU9IjE0IiBsZW5ndGhBZGp1c3Q9InNwYWNpbmciIHRleHRMZW5ndGg9IjExNCIgeD0iNTczIiB5PSIyNzYuNjcxOSI+Y29tbWVudCA6IHN0cmluZzwvdGV4dD48bGluZSBzdHlsZT0ic3Ryb2tlOiMxODE4MTg7c3Ryb2tlLXdpZHRoOjAuNTsiIHgxPSI1NTQiIHgyPSI2OTIiIHkxPSIyODIuNDIxOSIgeTI9IjI4Mi40MjE5Ii8+PC9nPjwhLS1jbGFzcyBaaXBDb2RlLS0+PGcgaWQ9ImVsZW1fWmlwQ29kZSI+PHJlY3QgY29kZUxpbmU9Ijg2IiBmaWxsPSIjRjFGMUYxIiBoZWlnaHQ9Ijc3Ljk2ODgiIGlkPSJaaXBDb2RlIiByeD0iMi41IiByeT0iMi41IiBzdHlsZT0ic3Ryb2tlOiMxODE4MTg7c3Ryb2tlLXdpZHRoOjAuNTsiIHdpZHRoPSIxMzgiIHg9IjciIHk9IjEwODciLz48ZWxsaXBzZSBjeD0iNDcuNjUiIGN5PSIxMTAzIiBmaWxsPSIjQUREMUIyIiByeD0iMTEiIHJ5PSIxMSIgc3R5bGU9InN0cm9rZTojMTgxODE4O3N0cm9rZS13aWR0aDoxLjA7Ii8+PHBhdGggZD0iTTQ1LjI3NSwxMTA3LjI1IEw0NS4yNzUsMTEwOSBMNTAuMjEyNSwxMTA5IEw1MC4yMTI1LDExMDcuMjUgTDQ1LjI3NSwxMTA3LjI1IFogTTQ1Ljk2MjUsMTEwNy45Mzc1IFE0NS45NjI1LDExMDcuOTM3NSA0NS45NjI1LDEwOTguNzUgTDQ0LjIxMjUsMTA5OC43NSBRNDQuMjEyNSwxMDk4Ljc1IDQ0LjIxMjUsMTEwNy45Mzc1IEw0NS45NjI1LDExMDcuOTM3NSBaIE00OS41MjUsMTEwNy45Mzc1IEw1MS4yNzUsMTEwNy45Mzc1IFE1MS4yNzUsMTEwNy45Mzc1IDUxLjI3NSwxMTA1LjEyNSBMNDkuNTI1LDExMDUuMTI1IFE0OS41MjUsMTEwNS4xMjUgNDkuNTI1LDExMDcuOTM3NSBaIE00OS41MjUsMTA5OC43NSBRNDkuNTI1LDEwOTguNzUgNDkuNTI1LDExMDEuNTYyNSBMNTEuMjc1LDExMDEuNTYyNSBRNTEuMjc1LDExMDEuNTYyNSA1MS4yNzUsMTA5OC43NSBMNDkuNTI1LDEwOTguNzUgWiBNNDUuMjc1LDEwOTkuNDM3NSBMNTAuMjEyNSwxMDk5LjQzNzUgTDUwLjIxMjUsMTA5Ny42ODc1IEw0NS4yNzUsMTA5Ny42ODc1IEw0NS4yNzUsMTA5OS40Mzc1IFogIiBmaWxsPSIjMDAwMDAwIi8+PHRleHQgZmlsbD0iIzAwMDAwMCIgZm9udC1mYW1pbHk9InNhbnMtc2VyaWYiIGZvbnQtc2l6ZT0iMTQiIGxlbmd0aEFkanVzdD0ic3BhY2luZyIgdGV4dExlbmd0aD0iNDkiIHg9IjY3LjM1IiB5PSIxMTA4Ljc0MjIiPlppcENvZGU8L3RleHQ+PGxpbmUgc3R5bGU9InN0cm9rZTojMTgxODE4O3N0cm9rZS13aWR0aDowLjU7IiB4MT0iOCIgeDI9IjE0NCIgeTE9IjExMTkiIHkyPSIxMTE5Ii8+PGVsbGlwc2UgY3g9IjE4IiBjeT0iMTEzMS45OTIyIiBmaWxsPSJub25lIiByeD0iMyIgcnk9IjMiIHN0eWxlPSJzdHJva2U6IzAzODA0ODtzdHJva2Utd2lkdGg6MS4wOyIvPjx0ZXh0IGZpbGw9IiMwMDAwMDAiIGZvbnQtZmFtaWx5PSJzYW5zLXNlcmlmIiBmb250LXNpemU9IjE0IiBsZW5ndGhBZGp1c3Q9InNwYWNpbmciIHRleHRMZW5ndGg9IjEwNSIgeD0iMjciIHk9IjExMzYuMjM0NCI+emlwQ29kZUlkIDogaW50PC90ZXh0PjxlbGxpcHNlIGN4PSIxOCIgY3k9IjExNDYuOTc2NiIgZmlsbD0ibm9uZSIgcng9IjMiIHJ5PSIzIiBzdHlsZT0ic3Ryb2tlOiMwMzgwNDg7c3Ryb2tlLXdpZHRoOjEuMDsiLz48dGV4dCBmaWxsPSIjMDAwMDAwIiBmb250LWZhbWlseT0ic2Fucy1zZXJpZiIgZm9udC1zaXplPSIxNCIgbGVuZ3RoQWRqdXN0PSJzcGFjaW5nIiB0ZXh0TGVuZ3RoPSIxMTIiIHg9IjI3IiB5PSIxMTUxLjIxODgiPnppcENvZGUgOiBzdHJpbmc8L3RleHQ+PGxpbmUgc3R5bGU9InN0cm9rZTojMTgxODE4O3N0cm9rZS13aWR0aDowLjU7IiB4MT0iOCIgeDI9IjE0NCIgeTE9IjExNTYuOTY4OCIgeTI9IjExNTYuOTY4OCIvPjwvZz48IS0tY2xhc3MgU2FsZXNEYXRhLS0+PGcgaWQ9ImVsZW1fU2FsZXNEYXRhIj48cmVjdCBjb2RlTGluZT0iOTEiIGZpbGw9IiNGMUYxRjEiIGhlaWdodD0iMTA3LjkzNzUiIGlkPSJTYWxlc0RhdGEiIHJ4PSIyLjUiIHJ5PSIyLjUiIHN0eWxlPSJzdHJva2U6IzE4MTgxODtzdHJva2Utd2lkdGg6MC41OyIgd2lkdGg9IjE0NSIgeD0iMTgxLjUiIHk9IjEyMjUiLz48ZWxsaXBzZSBjeD0iMjE5IiBjeT0iMTI0MSIgZmlsbD0iI0FERDFCMiIgcng9IjExIiByeT0iMTEiIHN0eWxlPSJzdHJva2U6IzE4MTgxODtzdHJva2Utd2lkdGg6MS4wOyIvPjxwYXRoIGQ9Ik0yMTYuNjI1LDEyNDUuMjUgTDIxNi42MjUsMTI0NyBMMjIxLjU2MjUsMTI0NyBMMjIxLjU2MjUsMTI0NS4yNSBMMjE2LjYyNSwxMjQ1LjI1IFogTTIxNy4zMTI1LDEyNDUuOTM3NSBRMjE3LjMxMjUsMTI0NS45Mzc1IDIxNy4zMTI1LDEyMzYuNzUgTDIxNS41NjI1LDEyMzYuNzUgUTIxNS41NjI1LDEyMzYuNzUgMjE1LjU2MjUsMTI0NS45Mzc1IEwyMTcuMzEyNSwxMjQ1LjkzNzUgWiBNMjIwLjg3NSwxMjQ1LjkzNzUgTDIyMi42MjUsMTI0NS45Mzc1IFEyMjIuNjI1LDEyNDUuOTM3NSAyMjIuNjI1LDEyNDMuMTI1IEwyMjAuODc1LDEyNDMuMTI1IFEyMjAuODc1LDEyNDMuMTI1IDIyMC44NzUsMTI0NS45Mzc1IFogTTIyMC44NzUsMTIzNi43NSBRMjIwLjg3NSwxMjM2Ljc1IDIyMC44NzUsMTIzOS41NjI1IEwyMjIuNjI1LDEyMzkuNTYyNSBRMjIyLjYyNSwxMjM5LjU2MjUgMjIyLjYyNSwxMjM2Ljc1IEwyMjAuODc1LDEyMzYuNzUgWiBNMjE2LjYyNSwxMjM3LjQzNzUgTDIyMS41NjI1LDEyMzcuNDM3NSBMMjIxLjU2MjUsMTIzNS42ODc1IEwyMTYuNjI1LDEyMzUuNjg3NSBMMjE2LjYyNSwxMjM3LjQzNzUgWiAiIGZpbGw9IiMwMDAwMDAiLz48dGV4dCBmaWxsPSIjMDAwMDAwIiBmb250LWZhbWlseT0ic2Fucy1zZXJpZiIgZm9udC1zaXplPSIxNCIgbGVuZ3RoQWRqdXN0PSJzcGFjaW5nIiB0ZXh0TGVuZ3RoPSI2MyIgeD0iMjM4IiB5PSIxMjQ2Ljc0MjIiPlNhbGVzRGF0YTwvdGV4dD48bGluZSBzdHlsZT0ic3Ryb2tlOiMxODE4MTg7c3Ryb2tlLXdpZHRoOjAuNTsiIHgxPSIxODIuNSIgeDI9IjMyNS41IiB5MT0iMTI1NyIgeTI9IjEyNTciLz48ZWxsaXBzZSBjeD0iMTkyLjUiIGN5PSIxMjY5Ljk5MjIiIGZpbGw9Im5vbmUiIHJ4PSIzIiByeT0iMyIgc3R5bGU9InN0cm9rZTojMDM4MDQ4O3N0cm9rZS13aWR0aDoxLjA7Ii8+PHRleHQgZmlsbD0iIzAwMDAwMCIgZm9udC1mYW1pbHk9InNhbnMtc2VyaWYiIGZvbnQtc2l6ZT0iMTQiIGxlbmd0aEFkanVzdD0ic3BhY2luZyIgdGV4dExlbmd0aD0iMTE5IiB4PSIyMDEuNSIgeT0iMTI3NC4yMzQ0Ij5zYWxlc0RhdGFJZCA6IGludDwvdGV4dD48ZWxsaXBzZSBjeD0iMTkyLjUiIGN5PSIxMjg0Ljk3NjYiIGZpbGw9Im5vbmUiIHJ4PSIzIiByeT0iMyIgc3R5bGU9InN0cm9rZTojMDM4MDQ4O3N0cm9rZS13aWR0aDoxLjA7Ii8+PHRleHQgZmlsbD0iIzAwMDAwMCIgZm9udC1mYW1pbHk9InNhbnMtc2VyaWYiIGZvbnQtc2l6ZT0iMTQiIGxlbmd0aEFkanVzdD0ic3BhY2luZyIgdGV4dExlbmd0aD0iMTA1IiB4PSIyMDEuNSIgeT0iMTI4OS4yMTg4Ij5wcm9kdWN0SWQgOiBpbnQ8L3RleHQ+PGVsbGlwc2UgY3g9IjE5Mi41IiBjeT0iMTI5OS45NjA5IiBmaWxsPSJub25lIiByeD0iMyIgcnk9IjMiIHN0eWxlPSJzdHJva2U6IzAzODA0ODtzdHJva2Utd2lkdGg6MS4wOyIvPjx0ZXh0IGZpbGw9IiMwMDAwMDAiIGZvbnQtZmFtaWx5PSJzYW5zLXNlcmlmIiBmb250LXNpemU9IjE0IiBsZW5ndGhBZGp1c3Q9InNwYWNpbmciIHRleHRMZW5ndGg9IjEwNSIgeD0iMjAxLjUiIHk9IjEzMDQuMjAzMSI+emlwQ29kZUlkIDogaW50PC90ZXh0PjxlbGxpcHNlIGN4PSIxOTIuNSIgY3k9IjEzMTQuOTQ1MyIgZmlsbD0ibm9uZSIgcng9IjMiIHJ5PSIzIiBzdHlsZT0ic3Ryb2tlOiMwMzgwNDg7c3Ryb2tlLXdpZHRoOjEuMDsiLz48dGV4dCBmaWxsPSIjMDAwMDAwIiBmb250LWZhbWlseT0ic2Fucy1zZXJpZiIgZm9udC1zaXplPSIxNCIgbGVuZ3RoQWRqdXN0PSJzcGFjaW5nIiB0ZXh0TGVuZ3RoPSI5OCIgeD0iMjAxLjUiIHk9IjEzMTkuMTg3NSI+cXVhbnRpdHkgOiBpbnQ8L3RleHQ+PGxpbmUgc3R5bGU9InN0cm9rZTojMTgxODE4O3N0cm9rZS13aWR0aDowLjU7IiB4MT0iMTgyLjUiIHgyPSIzMjUuNSIgeTE9IjEzMjQuOTM3NSIgeTI9IjEzMjQuOTM3NSIvPjwvZz48IS0tY2xhc3MgSW5mbHVlbnRpYWxSZXZpZXdlci0tPjxnIGlkPSJlbGVtX0luZmx1ZW50aWFsUmV2aWV3ZXIiPjxyZWN0IGNvZGVMaW5lPSI5OCIgZmlsbD0iI0YxRjFGMSIgaGVpZ2h0PSI5Mi45NTMxIiBpZD0iSW5mbHVlbnRpYWxSZXZpZXdlciIgcng9IjIuNSIgcnk9IjIuNSIgc3R5bGU9InN0cm9rZTojMTgxODE4O3N0cm9rZS13aWR0aDowLjU7IiB3aWR0aD0iMTY2IiB4PSI3MjgiIHk9IjE4Mi41Ii8+PGVsbGlwc2UgY3g9Ijc0MyIgY3k9IjE5OC41IiBmaWxsPSIjQUREMUIyIiByeD0iMTEiIHJ5PSIxMSIgc3R5bGU9InN0cm9rZTojMTgxODE4O3N0cm9rZS13aWR0aDoxLjA7Ii8+PHBhdGggZD0iTTc0MC42MjUsMjAyLjc1IEw3NDAuNjI1LDIwNC41IEw3NDUuNTYyNSwyMDQuNSBMNzQ1LjU2MjUsMjAyLjc1IEw3NDAuNjI1LDIwMi43NSBaIE03NDEuMzEyNSwyMDMuNDM3NSBRNzQxLjMxMjUsMjAzLjQzNzUgNzQxLjMxMjUsMTk0LjI1IEw3MzkuNTYyNSwxOTQuMjUgUTczOS41NjI1LDE5NC4yNSA3MzkuNTYyNSwyMDMuNDM3NSBMNzQxLjMxMjUsMjAzLjQzNzUgWiBNNzQ0Ljg3NSwyMDMuNDM3NSBMNzQ2LjYyNSwyMDMuNDM3NSBRNzQ2LjYyNSwyMDMuNDM3NSA3NDYuNjI1LDIwMC42MjUgTDc0NC44NzUsMjAwLjYyNSBRNzQ0Ljg3NSwyMDAuNjI1IDc0NC44NzUsMjAzLjQzNzUgWiBNNzQ0Ljg3NSwxOTQuMjUgUTc0NC44NzUsMTk0LjI1IDc0NC44NzUsMTk3LjA2MjUgTDc0Ni42MjUsMTk3LjA2MjUgUTc0Ni42MjUsMTk3LjA2MjUgNzQ2LjYyNSwxOTQuMjUgTDc0NC44NzUsMTk0LjI1IFogTTc0MC42MjUsMTk0LjkzNzUgTDc0NS41NjI1LDE5NC45Mzc1IEw3NDUuNTYyNSwxOTMuMTg3NSBMNzQwLjYyNSwxOTMuMTg3NSBMNzQwLjYyNSwxOTQuOTM3NSBaICIgZmlsbD0iIzAwMDAwMCIvPjx0ZXh0IGZpbGw9IiMwMDAwMDAiIGZvbnQtZmFtaWx5PSJzYW5zLXNlcmlmIiBmb250LXNpemU9IjE0IiBsZW5ndGhBZGp1c3Q9InNwYWNpbmciIHRleHRMZW5ndGg9IjEzNCIgeD0iNzU3IiB5PSIyMDQuMjQyMiI+SW5mbHVlbnRpYWxSZXZpZXdlcjwvdGV4dD48bGluZSBzdHlsZT0ic3Ryb2tlOiMxODE4MTg7c3Ryb2tlLXdpZHRoOjAuNTsiIHgxPSI3MjkiIHgyPSI4OTMiIHkxPSIyMTQuNSIgeTI9IjIxNC41Ii8+PGVsbGlwc2UgY3g9IjczOSIgY3k9IjIyNy40OTIyIiBmaWxsPSJub25lIiByeD0iMyIgcnk9IjMiIHN0eWxlPSJzdHJva2U6IzAzODA0ODtzdHJva2Utd2lkdGg6MS4wOyIvPjx0ZXh0IGZpbGw9IiMwMDAwMDAiIGZvbnQtZmFtaWx5PSJzYW5zLXNlcmlmIiBmb250LXNpemU9IjE0IiBsZW5ndGhBZGp1c3Q9InNwYWNpbmciIHRleHRMZW5ndGg9IjExMyIgeD0iNzQ4IiB5PSIyMzEuNzM0NCI+cmV2aWV3ZXJJZCA6IGludDwvdGV4dD48ZWxsaXBzZSBjeD0iNzM5IiBjeT0iMjQyLjQ3NjYiIGZpbGw9Im5vbmUiIHJ4PSIzIiByeT0iMyIgc3R5bGU9InN0cm9rZTojMDM4MDQ4O3N0cm9rZS13aWR0aDoxLjA7Ii8+PHRleHQgZmlsbD0iIzAwMDAwMCIgZm9udC1mYW1pbHk9InNhbnMtc2VyaWYiIGZvbnQtc2l6ZT0iMTQiIGxlbmd0aEFkanVzdD0ic3BhY2luZyIgdGV4dExlbmd0aD0iMTEzIiB4PSI3NDgiIHk9IjI0Ni43MTg4Ij5jdXN0b21lcklkIDogaW50PC90ZXh0PjxlbGxpcHNlIGN4PSI3MzkiIGN5PSIyNTcuNDYwOSIgZmlsbD0ibm9uZSIgcng9IjMiIHJ5PSIzIiBzdHlsZT0ic3Ryb2tlOiMwMzgwNDg7c3Ryb2tlLXdpZHRoOjEuMDsiLz48dGV4dCBmaWxsPSIjMDAwMDAwIiBmb250LWZhbWlseT0ic2Fucy1zZXJpZiIgZm9udC1zaXplPSIxNCIgbGVuZ3RoQWRqdXN0PSJzcGFjaW5nIiB0ZXh0TGVuZ3RoPSI4NCIgeD0iNzQ4IiB5PSIyNjEuNzAzMSI+cmF0aW5nIDogaW50PC90ZXh0PjxsaW5lIHN0eWxlPSJzdHJva2U6IzE4MTgxODtzdHJva2Utd2lkdGg6MC41OyIgeDE9IjcyOSIgeDI9Ijg5MyIgeTE9IjI2Ny40NTMxIiB5Mj0iMjY3LjQ1MzEiLz48L2c+PCEtLWNsYXNzIE1hbmFnZXItLT48ZyBpZD0iZWxlbV9NYW5hZ2VyIj48cmVjdCBjb2RlTGluZT0iMTA0IiBmaWxsPSIjRjFGMUYxIiBoZWlnaHQ9IjkyLjk1MzEiIGlkPSJNYW5hZ2VyIiByeD0iMi41IiByeT0iMi41IiBzdHlsZT0ic3Ryb2tlOiMxODE4MTg7c3Ryb2tlLXdpZHRoOjAuNTsiIHdpZHRoPSIxMTkiIHg9IjExNDYuNSIgeT0iMTgyLjUiLz48ZWxsaXBzZSBjeD0iMTE3OC42IiBjeT0iMTk4LjUiIGZpbGw9IiNBREQxQjIiIHJ4PSIxMSIgcnk9IjExIiBzdHlsZT0ic3Ryb2tlOiMxODE4MTg7c3Ryb2tlLXdpZHRoOjEuMDsiLz48cGF0aCBkPSJNMTE3Ni4yMjUsMjAyLjc1IEwxMTc2LjIyNSwyMDQuNSBMMTE4MS4xNjI1LDIwNC41IEwxMTgxLjE2MjUsMjAyLjc1IEwxMTc2LjIyNSwyMDIuNzUgWiBNMTE3Ni45MTI1LDIwMy40Mzc1IFExMTc2LjkxMjUsMjAzLjQzNzUgMTE3Ni45MTI1LDE5NC4yNSBMMTE3NS4xNjI1LDE5NC4yNSBRMTE3NS4xNjI1LDE5NC4yNSAxMTc1LjE2MjUsMjAzLjQzNzUgTDExNzYuOTEyNSwyMDMuNDM3NSBaIE0xMTgwLjQ3NSwyMDMuNDM3NSBMMTE4Mi4yMjUsMjAzLjQzNzUgUTExODIuMjI1LDIwMy40Mzc1IDExODIuMjI1LDIwMC42MjUgTDExODAuNDc1LDIwMC42MjUgUTExODAuNDc1LDIwMC42MjUgMTE4MC40NzUsMjAzLjQzNzUgWiBNMTE4MC40NzUsMTk0LjI1IFExMTgwLjQ3NSwxOTQuMjUgMTE4MC40NzUsMTk3LjA2MjUgTDExODIuMjI1LDE5Ny4wNjI1IFExMTgyLjIyNSwxOTcuMDYyNSAxMTgyLjIyNSwxOTQuMjUgTDExODAuNDc1LDE5NC4yNSBaIE0xMTc2LjIyNSwxOTQuOTM3NSBMMTE4MS4xNjI1LDE5NC45Mzc1IEwxMTgxLjE2MjUsMTkzLjE4NzUgTDExNzYuMjI1LDE5My4xODc1IEwxMTc2LjIyNSwxOTQuOTM3NSBaICIgZmlsbD0iIzAwMDAwMCIvPjx0ZXh0IGZpbGw9IiMwMDAwMDAiIGZvbnQtZmFtaWx5PSJzYW5zLXNlcmlmIiBmb250LXNpemU9IjE0IiBsZW5ndGhBZGp1c3Q9InNwYWNpbmciIHRleHRMZW5ndGg9IjQ5IiB4PSIxMTk2LjQiIHk9IjIwNC4yNDIyIj5NYW5hZ2VyPC90ZXh0PjxsaW5lIHN0eWxlPSJzdHJva2U6IzE4MTgxODtzdHJva2Utd2lkdGg6MC41OyIgeDE9IjExNDcuNSIgeDI9IjEyNjQuNSIgeTE9IjIxNC41IiB5Mj0iMjE0LjUiLz48bGluZSBzdHlsZT0ic3Ryb2tlOiMxODE4MTg7c3Ryb2tlLXdpZHRoOjAuNTsiIHgxPSIxMTQ3LjUiIHgyPSIxMjY0LjUiIHkxPSIyMjIuNSIgeTI9IjIyMi41Ii8+PGVsbGlwc2UgY3g9IjExNTcuNSIgY3k9IjIzNS40OTIyIiBmaWxsPSIjODRCRTg0IiByeD0iMyIgcnk9IjMiIHN0eWxlPSJzdHJva2U6IzAzODA0ODtzdHJva2Utd2lkdGg6MS4wOyIvPjx0ZXh0IGZpbGw9IiMwMDAwMDAiIGZvbnQtZmFtaWx5PSJzYW5zLXNlcmlmIiBmb250LXNpemU9IjE0IiBsZW5ndGhBZGp1c3Q9InNwYWNpbmciIHRleHRMZW5ndGg9IjkzIiB4PSIxMTY2LjUiIHk9IjIzOS43MzQ0Ij5jYW5jZWxPcmRlcigpPC90ZXh0PjxlbGxpcHNlIGN4PSIxMTU3LjUiIGN5PSIyNTAuNDc2NiIgZmlsbD0iIzg0QkU4NCIgcng9IjMiIHJ5PSIzIiBzdHlsZT0ic3Ryb2tlOiMwMzgwNDg7c3Ryb2tlLXdpZHRoOjEuMDsiLz48dGV4dCBmaWxsPSIjMDAwMDAwIiBmb250LWZhbWlseT0ic2Fucy1zZXJpZiIgZm9udC1zaXplPSIxNCIgbGVuZ3RoQWRqdXN0PSJzcGFjaW5nIiB0ZXh0TGVuZ3RoPSI5MyIgeD0iMTE2Ni41IiB5PSIyNTQuNzE4OCI+dXBkYXRlT3JkZXIoKTwvdGV4dD48ZWxsaXBzZSBjeD0iMTE1Ny41IiBjeT0iMjY1LjQ2MDkiIGZpbGw9IiM4NEJFODQiIHJ4PSIzIiByeT0iMyIgc3R5bGU9InN0cm9rZTojMDM4MDQ4O3N0cm9rZS13aWR0aDoxLjA7Ii8+PHRleHQgZmlsbD0iIzAwMDAwMCIgZm9udC1mYW1pbHk9InNhbnMtc2VyaWYiIGZvbnQtc2l6ZT0iMTQiIGxlbmd0aEFkanVzdD0ic3BhY2luZyIgdGV4dExlbmd0aD0iOTMiIHg9IjExNjYuNSIgeT0iMjY5LjcwMzEiPmRlbGV0ZU9yZGVyKCk8L3RleHQ+PC9nPjwhLS1jbGFzcyBBY2NvdW50U3BlY2lhbGlzdC0tPjxnIGlkPSJlbGVtX0FjY291bnRTcGVjaWFsaXN0Ij48cmVjdCBjb2RlTGluZT0iMTEwIiBmaWxsPSIjRjFGMUYxIiBoZWlnaHQ9IjEwNy45Mzc1IiBpZD0iQWNjb3VudFNwZWNpYWxpc3QiIHJ4PSIyLjUiIHJ5PSIyLjUiIHN0eWxlPSJzdHJva2U6IzE4MTgxODtzdHJva2Utd2lkdGg6MC41OyIgd2lkdGg9IjE1MSIgeD0iMTMwMC41IiB5PSIxNzUiLz48ZWxsaXBzZSBjeD0iMTMxNS41IiBjeT0iMTkxIiBmaWxsPSIjQUREMUIyIiByeD0iMTEiIHJ5PSIxMSIgc3R5bGU9InN0cm9rZTojMTgxODE4O3N0cm9rZS13aWR0aDoxLjA7Ii8+PHBhdGggZD0iTTEzMTMuMTI1LDE5NS4yNSBMMTMxMy4xMjUsMTk3IEwxMzE4LjA2MjUsMTk3IEwxMzE4LjA2MjUsMTk1LjI1IEwxMzEzLjEyNSwxOTUuMjUgWiBNMTMxMy44MTI1LDE5NS45Mzc1IFExMzEzLjgxMjUsMTk1LjkzNzUgMTMxMy44MTI1LDE4Ni43NSBMMTMxMi4wNjI1LDE4Ni43NSBRMTMxMi4wNjI1LDE4Ni43NSAxMzEyLjA2MjUsMTk1LjkzNzUgTDEzMTMuODEyNSwxOTUuOTM3NSBaIE0xMzE3LjM3NSwxOTUuOTM3NSBMMTMxOS4xMjUsMTk1LjkzNzUgUTEzMTkuMTI1LDE5NS45Mzc1IDEzMTkuMTI1LDE5My4xMjUgTDEzMTcuMzc1LDE5My4xMjUgUTEzMTcuMzc1LDE5My4xMjUgMTMxNy4zNzUsMTk1LjkzNzUgWiBNMTMxNy4zNzUsMTg2Ljc1IFExMzE3LjM3NSwxODYuNzUgMTMxNy4zNzUsMTg5LjU2MjUgTDEzMTkuMTI1LDE4OS41NjI1IFExMzE5LjEyNSwxODkuNTYyNSAxMzE5LjEyNSwxODYuNzUgTDEzMTcuMzc1LDE4Ni43NSBaIE0xMzEzLjEyNSwxODcuNDM3NSBMMTMxOC4wNjI1LDE4Ny40Mzc1IEwxMzE4LjA2MjUsMTg1LjY4NzUgTDEzMTMuMTI1LDE4NS42ODc1IEwxMzEzLjEyNSwxODcuNDM3NSBaICIgZmlsbD0iIzAwMDAwMCIvPjx0ZXh0IGZpbGw9IiMwMDAwMDAiIGZvbnQtZmFtaWx5PSJzYW5zLXNlcmlmIiBmb250LXNpemU9IjE0IiBsZW5ndGhBZGp1c3Q9InNwYWNpbmciIHRleHRMZW5ndGg9IjExOSIgeD0iMTMyOS41IiB5PSIxOTYuNzQyMiI+QWNjb3VudFNwZWNpYWxpc3Q8L3RleHQ+PGxpbmUgc3R5bGU9InN0cm9rZTojMTgxODE4O3N0cm9rZS13aWR0aDowLjU7IiB4MT0iMTMwMS41IiB4Mj0iMTQ1MC41IiB5MT0iMjA3IiB5Mj0iMjA3Ii8+PGxpbmUgc3R5bGU9InN0cm9rZTojMTgxODE4O3N0cm9rZS13aWR0aDowLjU7IiB4MT0iMTMwMS41IiB4Mj0iMTQ1MC41IiB5MT0iMjE1IiB5Mj0iMjE1Ii8+PGVsbGlwc2UgY3g9IjEzMTEuNSIgY3k9IjIyNy45OTIyIiBmaWxsPSIjODRCRTg0IiByeD0iMyIgcnk9IjMiIHN0eWxlPSJzdHJva2U6IzAzODA0ODtzdHJva2Utd2lkdGg6MS4wOyIvPjx0ZXh0IGZpbGw9IiMwMDAwMDAiIGZvbnQtZmFtaWx5PSJzYW5zLXNlcmlmIiBmb250LXNpemU9IjE0IiBsZW5ndGhBZGp1c3Q9InNwYWNpbmciIHRleHRMZW5ndGg9IjEwNyIgeD0iMTMyMC41IiB5PSIyMzIuMjM0NCI+Y3JlYXRlQWNjb3VudCgpPC90ZXh0PjxlbGxpcHNlIGN4PSIxMzExLjUiIGN5PSIyNDIuOTc2NiIgZmlsbD0iIzg0QkU4NCIgcng9IjMiIHJ5PSIzIiBzdHlsZT0ic3Ryb2tlOiMwMzgwNDg7c3Ryb2tlLXdpZHRoOjEuMDsiLz48dGV4dCBmaWxsPSIjMDAwMDAwIiBmb250LWZhbWlseT0ic2Fucy1zZXJpZiIgZm9udC1zaXplPSIxNCIgbGVuZ3RoQWRqdXN0PSJzcGFjaW5nIiB0ZXh0TGVuZ3RoPSIxMDciIHg9IjEzMjAuNSIgeT0iMjQ3LjIxODgiPnVwZGF0ZUFjY291bnQoKTwvdGV4dD48ZWxsaXBzZSBjeD0iMTMxMS41IiBjeT0iMjU3Ljk2MDkiIGZpbGw9IiM4NEJFODQiIHJ4PSIzIiByeT0iMyIgc3R5bGU9InN0cm9rZTojMDM4MDQ4O3N0cm9rZS13aWR0aDoxLjA7Ii8+PHRleHQgZmlsbD0iIzAwMDAwMCIgZm9udC1mYW1pbHk9InNhbnMtc2VyaWYiIGZvbnQtc2l6ZT0iMTQiIGxlbmd0aEFkanVzdD0ic3BhY2luZyIgdGV4dExlbmd0aD0iMTAwIiB4PSIxMzIwLjUiIHk9IjI2Mi4yMDMxIj5jcmVhdGVUaWNrZXQoKTwvdGV4dD48ZWxsaXBzZSBjeD0iMTMxMS41IiBjeT0iMjcyLjk0NTMiIGZpbGw9IiM4NEJFODQiIHJ4PSIzIiByeT0iMyIgc3R5bGU9InN0cm9rZTojMDM4MDQ4O3N0cm9rZS13aWR0aDoxLjA7Ii8+PHRleHQgZmlsbD0iIzAwMDAwMCIgZm9udC1mYW1pbHk9InNhbnMtc2VyaWYiIGZvbnQtc2l6ZT0iMTQiIGxlbmd0aEFkanVzdD0ic3BhY2luZyIgdGV4dExlbmd0aD0iNzIiIHg9IjEzMjAuNSIgeT0iMjc3LjE4NzUiPm9yZGVyUFBWKCk8L3RleHQ+PC9nPjwhLS1jbGFzcyBUZWNobmljYWxTdXBwb3J0U3BlY2lhbGlzdC0tPjxnIGlkPSJlbGVtX1RlY2huaWNhbFN1cHBvcnRTcGVjaWFsaXN0Ij48cmVjdCBjb2RlTGluZT0iMTE3IiBmaWxsPSIjRjFGMUYxIiBoZWlnaHQ9IjkyLjk1MzEiIGlkPSJUZWNobmljYWxTdXBwb3J0U3BlY2lhbGlzdCIgcng9IjIuNSIgcnk9IjIuNSIgc3R5bGU9InN0cm9rZTojMTgxODE4O3N0cm9rZS13aWR0aDowLjU7IiB3aWR0aD0iMjE0IiB4PSIxNDg3IiB5PSIxODIuNSIvPjxlbGxpcHNlIGN4PSIxNTAyIiBjeT0iMTk4LjUiIGZpbGw9IiNBREQxQjIiIHJ4PSIxMSIgcnk9IjExIiBzdHlsZT0ic3Ryb2tlOiMxODE4MTg7c3Ryb2tlLXdpZHRoOjEuMDsiLz48cGF0aCBkPSJNMTQ5OS42MjUsMjAyLjc1IEwxNDk5LjYyNSwyMDQuNSBMMTUwNC41NjI1LDIwNC41IEwxNTA0LjU2MjUsMjAyLjc1IEwxNDk5LjYyNSwyMDIuNzUgWiBNMTUwMC4zMTI1LDIwMy40Mzc1IFExNTAwLjMxMjUsMjAzLjQzNzUgMTUwMC4zMTI1LDE5NC4yNSBMMTQ5OC41NjI1LDE5NC4yNSBRMTQ5OC41NjI1LDE5NC4yNSAxNDk4LjU2MjUsMjAzLjQzNzUgTDE1MDAuMzEyNSwyMDMuNDM3NSBaIE0xNTAzLjg3NSwyMDMuNDM3NSBMMTUwNS42MjUsMjAzLjQzNzUgUTE1MDUuNjI1LDIwMy40Mzc1IDE1MDUuNjI1LDIwMC42MjUgTDE1MDMuODc1LDIwMC42MjUgUTE1MDMuODc1LDIwMC42MjUgMTUwMy44NzUsMjAzLjQzNzUgWiBNMTUwMy44NzUsMTk0LjI1IFExNTAzLjg3NSwxOTQuMjUgMTUwMy44NzUsMTk3LjA2MjUgTDE1MDUuNjI1LDE5Ny4wNjI1IFExNTA1LjYyNSwxOTcuMDYyNSAxNTA1LjYyNSwxOTQuMjUgTDE1MDMuODc1LDE5NC4yNSBaIE0xNDk5LjYyNSwxOTQuOTM3NSBMMTUwNC41NjI1LDE5NC45Mzc1IEwxNTA0LjU2MjUsMTkzLjE4NzUgTDE0OTkuNjI1LDE5My4xODc1IEwxNDk5LjYyNSwxOTQuOTM3NSBaICIgZmlsbD0iIzAwMDAwMCIvPjx0ZXh0IGZpbGw9IiMwMDAwMDAiIGZvbnQtZmFtaWx5PSJzYW5zLXNlcmlmIiBmb250LXNpemU9IjE0IiBsZW5ndGhBZGp1c3Q9InNwYWNpbmciIHRleHRMZW5ndGg9IjE4MiIgeD0iMTUxNiIgeT0iMjA0LjI0MjIiPlRlY2huaWNhbFN1cHBvcnRTcGVjaWFsaXN0PC90ZXh0PjxsaW5lIHN0eWxlPSJzdHJva2U6IzE4MTgxODtzdHJva2Utd2lkdGg6MC41OyIgeDE9IjE0ODgiIHgyPSIxNzAwIiB5MT0iMjE0LjUiIHkyPSIyMTQuNSIvPjxsaW5lIHN0eWxlPSJzdHJva2U6IzE4MTgxODtzdHJva2Utd2lkdGg6MC41OyIgeDE9IjE0ODgiIHgyPSIxNzAwIiB5MT0iMjIyLjUiIHkyPSIyMjIuNSIvPjxlbGxpcHNlIGN4PSIxNDk4IiBjeT0iMjM1LjQ5MjIiIGZpbGw9IiM4NEJFODQiIHJ4PSIzIiByeT0iMyIgc3R5bGU9InN0cm9rZTojMDM4MDQ4O3N0cm9rZS13aWR0aDoxLjA7Ii8+PHRleHQgZmlsbD0iIzAwMDAwMCIgZm9udC1mYW1pbHk9InNhbnMtc2VyaWYiIGZvbnQtc2l6ZT0iMTQiIGxlbmd0aEFkanVzdD0ic3BhY2luZyIgdGV4dExlbmd0aD0iMTE0IiB4PSIxNTA3IiB5PSIyMzkuNzM0NCI+c2NoZWR1bGVUaWNrZXQoKTwvdGV4dD48ZWxsaXBzZSBjeD0iMTQ5OCIgY3k9IjI1MC40NzY2IiBmaWxsPSIjODRCRTg0IiByeD0iMyIgcnk9IjMiIHN0eWxlPSJzdHJva2U6IzAzODA0ODtzdHJva2Utd2lkdGg6MS4wOyIvPjx0ZXh0IGZpbGw9IiMwMDAwMDAiIGZvbnQtZmFtaWx5PSJzYW5zLXNlcmlmIiBmb250LXNpemU9IjE0IiBsZW5ndGhBZGp1c3Q9InNwYWNpbmciIHRleHRMZW5ndGg9IjkzIiB4PSIxNTA3IiB5PSIyNTQuNzE4OCI+Y2xvc2VUaWNrZXQoKTwvdGV4dD48ZWxsaXBzZSBjeD0iMTQ5OCIgY3k9IjI2NS40NjA5IiBmaWxsPSIjODRCRTg0IiByeD0iMyIgcnk9IjMiIHN0eWxlPSJzdHJva2U6IzAzODA0ODtzdHJva2Utd2lkdGg6MS4wOyIvPjx0ZXh0IGZpbGw9IiMwMDAwMDAiIGZvbnQtZmFtaWx5PSJzYW5zLXNlcmlmIiBmb250LXNpemU9IjE0IiBsZW5ndGhBZGp1c3Q9InNwYWNpbmciIHRleHRMZW5ndGg9IjEwMCIgeD0iMTUwNyIgeT0iMjY5LjcwMzEiPmNhbmNlbFRpY2tldCgpPC90ZXh0PjwvZz48IS0tY2xhc3MgU2FsZXNUZWFtLS0+PGcgaWQ9ImVsZW1fU2FsZXNUZWFtIj48cmVjdCBjb2RlTGluZT0iMTIzIiBmaWxsPSIjRjFGMUYxIiBoZWlnaHQ9Ijc3Ljk2ODgiIGlkPSJTYWxlc1RlYW0iIHJ4PSIyLjUiIHJ5PSIyLjUiIHN0eWxlPSJzdHJva2U6IzE4MTgxODtzdHJva2Utd2lkdGg6MC41OyIgd2lkdGg9IjE0NyIgeD0iMTgwLjUiIHk9IjEwODciLz48ZWxsaXBzZSBjeD0iMjE4LjQ1IiBjeT0iMTEwMyIgZmlsbD0iI0FERDFCMiIgcng9IjExIiByeT0iMTEiIHN0eWxlPSJzdHJva2U6IzE4MTgxODtzdHJva2Utd2lkdGg6MS4wOyIvPjxwYXRoIGQ9Ik0yMTYuMDc1LDExMDcuMjUgTDIxNi4wNzUsMTEwOSBMMjIxLjAxMjUsMTEwOSBMMjIxLjAxMjUsMTEwNy4yNSBMMjE2LjA3NSwxMTA3LjI1IFogTTIxNi43NjI1LDExMDcuOTM3NSBRMjE2Ljc2MjUsMTEwNy45Mzc1IDIxNi43NjI1LDEwOTguNzUgTDIxNS4wMTI1LDEwOTguNzUgUTIxNS4wMTI1LDEwOTguNzUgMjE1LjAxMjUsMTEwNy45Mzc1IEwyMTYuNzYyNSwxMTA3LjkzNzUgWiBNMjIwLjMyNSwxMTA3LjkzNzUgTDIyMi4wNzUsMTEwNy45Mzc1IFEyMjIuMDc1LDExMDcuOTM3NSAyMjIuMDc1LDExMDUuMTI1IEwyMjAuMzI1LDExMDUuMTI1IFEyMjAuMzI1LDExMDUuMTI1IDIyMC4zMjUsMTEwNy45Mzc1IFogTTIyMC4zMjUsMTA5OC43NSBRMjIwLjMyNSwxMDk4Ljc1IDIyMC4zMjUsMTEwMS41NjI1IEwyMjIuMDc1LDExMDEuNTYyNSBRMjIyLjA3NSwxMTAxLjU2MjUgMjIyLjA3NSwxMDk4Ljc1IEwyMjAuMzI1LDEwOTguNzUgWiBNMjE2LjA3NSwxMDk5LjQzNzUgTDIyMS4wMTI1LDEwOTkuNDM3NSBMMjIxLjAxMjUsMTA5Ny42ODc1IEwyMTYuMDc1LDEwOTcuNjg3NSBMMjE2LjA3NSwxMDk5LjQzNzUgWiAiIGZpbGw9IiMwMDAwMDAiLz48dGV4dCBmaWxsPSIjMDAwMDAwIiBmb250LWZhbWlseT0ic2Fucy1zZXJpZiIgZm9udC1zaXplPSIxNCIgbGVuZ3RoQWRqdXN0PSJzcGFjaW5nIiB0ZXh0TGVuZ3RoPSI2NCIgeD0iMjM3LjU1IiB5PSIxMTA4Ljc0MjIiPlNhbGVzVGVhbTwvdGV4dD48bGluZSBzdHlsZT0ic3Ryb2tlOiMxODE4MTg7c3Ryb2tlLXdpZHRoOjAuNTsiIHgxPSIxODEuNSIgeDI9IjMyNi41IiB5MT0iMTExOSIgeTI9IjExMTkiLz48bGluZSBzdHlsZT0ic3Ryb2tlOiMxODE4MTg7c3Ryb2tlLXdpZHRoOjAuNTsiIHgxPSIxODEuNSIgeDI9IjMyNi41IiB5MT0iMTEyNyIgeTI9IjExMjciLz48ZWxsaXBzZSBjeD0iMTkxLjUiIGN5PSIxMTM5Ljk5MjIiIGZpbGw9IiM4NEJFODQiIHJ4PSIzIiByeT0iMyIgc3R5bGU9InN0cm9rZTojMDM4MDQ4O3N0cm9rZS13aWR0aDoxLjA7Ii8+PHRleHQgZmlsbD0iIzAwMDAwMCIgZm9udC1mYW1pbHk9InNhbnMtc2VyaWYiIGZvbnQtc2l6ZT0iMTQiIGxlbmd0aEFkanVzdD0ic3BhY2luZyIgdGV4dExlbmd0aD0iMTIxIiB4PSIyMDAuNSIgeT0iMTE0NC4yMzQ0Ij5mb3JlY2FzdFJldmVudWUoKTwvdGV4dD48ZWxsaXBzZSBjeD0iMTkxLjUiIGN5PSIxMTU0Ljk3NjYiIGZpbGw9IiM4NEJFODQiIHJ4PSIzIiByeT0iMyIgc3R5bGU9InN0cm9rZTojMDM4MDQ4O3N0cm9rZS13aWR0aDoxLjA7Ii8+PHRleHQgZmlsbD0iIzAwMDAwMCIgZm9udC1mYW1pbHk9InNhbnMtc2VyaWYiIGZvbnQtc2l6ZT0iMTQiIGxlbmd0aEFkanVzdD0ic3BhY2luZyIgdGV4dExlbmd0aD0iMTE1IiB4PSIyMDAuNSIgeT0iMTE1OS4yMTg4Ij5kZW1hbmRBbmFseXNpcygpPC90ZXh0PjwvZz48IS0tY2xhc3MgRGF0YVNjaWVudGlzdC0tPjxnIGlkPSJlbGVtX0RhdGFTY2llbnRpc3QiPjxyZWN0IGNvZGVMaW5lPSIxMjgiIGZpbGw9IiNGMUYxRjEiIGhlaWdodD0iNzcuOTY4OCIgaWQ9IkRhdGFTY2llbnRpc3QiIHJ4PSIyLjUiIHJ5PSIyLjUiIHN0eWxlPSJzdHJva2U6IzE4MTgxODtzdHJva2Utd2lkdGg6MC41OyIgd2lkdGg9IjE3NSIgeD0iNzIzLjUiIHk9IjciLz48ZWxsaXBzZSBjeD0iNzYxLjkiIGN5PSIyMyIgZmlsbD0iI0FERDFCMiIgcng9IjExIiByeT0iMTEiIHN0eWxlPSJzdHJva2U6IzE4MTgxODtzdHJva2Utd2lkdGg6MS4wOyIvPjxwYXRoIGQ9Ik03NTkuNTI1LDI3LjI1IEw3NTkuNTI1LDI5IEw3NjQuNDYyNSwyOSBMNzY0LjQ2MjUsMjcuMjUgTDc1OS41MjUsMjcuMjUgWiBNNzYwLjIxMjUsMjcuOTM3NSBRNzYwLjIxMjUsMjcuOTM3NSA3NjAuMjEyNSwxOC43NSBMNzU4LjQ2MjUsMTguNzUgUTc1OC40NjI1LDE4Ljc1IDc1OC40NjI1LDI3LjkzNzUgTDc2MC4yMTI1LDI3LjkzNzUgWiBNNzYzLjc3NSwyNy45Mzc1IEw3NjUuNTI1LDI3LjkzNzUgUTc2NS41MjUsMjcuOTM3NSA3NjUuNTI1LDI1LjEyNSBMNzYzLjc3NSwyNS4xMjUgUTc2My43NzUsMjUuMTI1IDc2My43NzUsMjcuOTM3NSBaIE03NjMuNzc1LDE4Ljc1IFE3NjMuNzc1LDE4Ljc1IDc2My43NzUsMjEuNTYyNSBMNzY1LjUyNSwyMS41NjI1IFE3NjUuNTI1LDIxLjU2MjUgNzY1LjUyNSwxOC43NSBMNzYzLjc3NSwxOC43NSBaIE03NTkuNTI1LDE5LjQzNzUgTDc2NC40NjI1LDE5LjQzNzUgTDc2NC40NjI1LDE3LjY4NzUgTDc1OS41MjUsMTcuNjg3NSBMNzU5LjUyNSwxOS40Mzc1IFogIiBmaWxsPSIjMDAwMDAwIi8+PHRleHQgZmlsbD0iIzAwMDAwMCIgZm9udC1mYW1pbHk9InNhbnMtc2VyaWYiIGZvbnQtc2l6ZT0iMTQiIGxlbmd0aEFkanVzdD0ic3BhY2luZyIgdGV4dExlbmd0aD0iOTEiIHg9Ijc4MS4xIiB5PSIyOC43NDIyIj5EYXRhU2NpZW50aXN0PC90ZXh0PjxsaW5lIHN0eWxlPSJzdHJva2U6IzE4MTgxODtzdHJva2Utd2lkdGg6MC41OyIgeDE9IjcyNC41IiB4Mj0iODk3LjUiIHkxPSIzOSIgeTI9IjM5Ii8+PGxpbmUgc3R5bGU9InN0cm9rZTojMTgxODE4O3N0cm9rZS13aWR0aDowLjU7IiB4MT0iNzI0LjUiIHgyPSI4OTcuNSIgeTE9IjQ3IiB5Mj0iNDciLz48ZWxsaXBzZSBjeD0iNzM0LjUiIGN5PSI1OS45OTIyIiBmaWxsPSIjODRCRTg0IiByeD0iMyIgcnk9IjMiIHN0eWxlPSJzdHJva2U6IzAzODA0ODtzdHJva2Utd2lkdGg6MS4wOyIvPjx0ZXh0IGZpbGw9IiMwMDAwMDAiIGZvbnQtZmFtaWx5PSJzYW5zLXNlcmlmIiBmb250LXNpemU9IjE0IiBsZW5ndGhBZGp1c3Q9InNwYWNpbmciIHRleHRMZW5ndGg9IjE0OSIgeD0iNzQzLjUiIHk9IjY0LjIzNDQiPmZpbmRTdXBlckNvbm5lY3RvcnMoKTwvdGV4dD48ZWxsaXBzZSBjeD0iNzM0LjUiIGN5PSI3NC45NzY2IiBmaWxsPSIjODRCRTg0IiByeD0iMyIgcnk9IjMiIHN0eWxlPSJzdHJva2U6IzAzODA0ODtzdHJva2Utd2lkdGg6MS4wOyIvPjx0ZXh0IGZpbGw9IiMwMDAwMDAiIGZvbnQtZmFtaWx5PSJzYW5zLXNlcmlmIiBmb250LXNpemU9IjE0IiBsZW5ndGhBZGp1c3Q9InNwYWNpbmciIHRleHRMZW5ndGg9IjExNSIgeD0iNzQzLjUiIHk9Ijc5LjIxODgiPmNyb3NzUHJvbW90aW9uKCk8L3RleHQ+PC9nPjwhLS1yZXZlcnNlIGxpbmsgUHJvZHVjdCB0byBUVlBsYW4tLT48ZyBpZD0ibGlua19Qcm9kdWN0X1RWUGxhbiI+PHBhdGggZD0iTTcyNS41MiwxMDQ1Ljg5IEM3MzMuNDgsMTA2My4yNiA3NDIuMDgsMTA4MC40IDc0OS45NCwxMDk0LjI2ICIgZmlsbD0ibm9uZSIgaWQ9IlByb2R1Y3QtYmFja3RvLVRWUGxhbiIgc3R5bGU9InN0cm9rZTojMTgxODE4O3N0cm9rZS13aWR0aDoxLjA7Ii8+PHBvbHlnb24gZmlsbD0ibm9uZSIgcG9pbnRzPSI3MTkuMDYsMTA0OC42LDcxNy4zNiwxMDI3LjQ4LDczMS44NiwxMDQyLjkzLDcxOS4wNiwxMDQ4LjYiIHN0eWxlPSJzdHJva2U6IzE4MTgxODtzdHJva2Utd2lkdGg6MS4wOyIvPjwvZz48IS0tbGluayBUVlBsYW4gdG8gUHJvZHVjdC0tPjxnIGlkPSJsaW5rX1RWUGxhbl9Qcm9kdWN0Ij48cGF0aCBjb2RlTGluZT0iMTM3IiBkPSJNNzcwLjg3LDEwOTQuMjYgQzc2NS4xLDEwNzYuNzMgNzU1LjcsMTA1My45NiA3NDUuNDUsMTAzMi4xMiAiIGZpbGw9Im5vbmUiIGlkPSJUVlBsYW4tdG8tUHJvZHVjdCIgc3R5bGU9InN0cm9rZTojMTgxODE4O3N0cm9rZS13aWR0aDoxLjA7Ii8+PHBvbHlnb24gZmlsbD0iIzE4MTgxOCIgcG9pbnRzPSI3NDMuMjUsMTAyNy40OCw3NDMuNDcwNCwxMDM3LjMyNjQsNzQ1LjM4MjQsMTAzMi4wMDI1LDc1MC43MDY0LDEwMzMuOTE0NSw3NDMuMjUsMTAyNy40OCIgc3R5bGU9InN0cm9rZTojMTgxODE4O3N0cm9rZS13aWR0aDoxLjA7Ii8+PC9nPjwhLS1yZXZlcnNlIGxpbmsgUHJvZHVjdCB0byBJbnRlcm5ldFBsYW4tLT48ZyBpZD0ibGlua19Qcm9kdWN0X0ludGVybmV0UGxhbiI+PHBhdGggZD0iTTc5OS4xNywxMDM5LjEgQzgyNi44MywxMDU4Ljc5IDg1NS43NSwxMDc4LjY5IDg3OS42OCwxMDk0LjM4ICIgZmlsbD0ibm9uZSIgaWQ9IlByb2R1Y3QtYmFja3RvLUludGVybmV0UGxhbiIgc3R5bGU9InN0cm9rZTojMTgxODE4O3N0cm9rZS13aWR0aDoxLjA7Ii8+PHBvbHlnb24gZmlsbD0ibm9uZSIgcG9pbnRzPSI3OTQuOCwxMDQ0LjU4LDc4Mi42MiwxMDI3LjI0LDgwMi45NSwxMDMzLjIsNzk0LjgsMTA0NC41OCIgc3R5bGU9InN0cm9rZTojMTgxODE4O3N0cm9rZS13aWR0aDoxLjA7Ii8+PC9nPjwhLS1saW5rIEludGVybmV0UGxhbiB0byBQcm9kdWN0LS0+PGcgaWQ9ImxpbmtfSW50ZXJuZXRQbGFuX1Byb2R1Y3QiPjxwYXRoIGNvZGVMaW5lPSIxMzgiIGQ9Ik05MDAuNDYsMTA5NC4yOCBDODcwLjk2LDEwNzEuMzcgODI2LjY2LDEwMzkuNDggNzg3LjAxLDEwMTIuNDIgIiBmaWxsPSJub25lIiBpZD0iSW50ZXJuZXRQbGFuLXRvLVByb2R1Y3QiIHN0eWxlPSJzdHJva2U6IzE4MTgxODtzdHJva2Utd2lkdGg6MS4wOyIvPjxwb2x5Z29uIGZpbGw9IiMxODE4MTgiIHBvaW50cz0iNzgyLjY5LDEwMDkuNDgsNzg3Ljg3MzYsMTAxNy44NTQ0LDc4Ni44MjE0LDEwMTIuMjk2Miw3OTIuMzc5NiwxMDExLjI0NDEsNzgyLjY5LDEwMDkuNDgiIHN0eWxlPSJzdHJva2U6IzE4MTgxODtzdHJva2Utd2lkdGg6MS4wOyIvPjwvZz48IS0tcmV2ZXJzZSBsaW5rIFByb2R1Y3QgdG8gUFBWRXZlbnQtLT48ZyBpZD0ibGlua19Qcm9kdWN0X1BQVkV2ZW50Ij48cGF0aCBkPSJNNTk4LjQ3LDEwMTcuODUgQzU1OC42MywxMDQzLjY5IDUxNS40NCwxMDcyLjk1IDQ4NS44MSwxMDk0LjM2ICIgZmlsbD0ibm9uZSIgaWQ9IlByb2R1Y3QtYmFja3RvLVBQVkV2ZW50IiBzdHlsZT0ic3Ryb2tlOiMxODE4MTg7c3Ryb2tlLXdpZHRoOjEuMDsiLz48cG9seWdvbiBmaWxsPSJub25lIiBwb2ludHM9IjU5NC42OSwxMDExLjk2LDYxNS4yOSwxMDA3LjAxLDYwMi4yNywxMDIzLjczLDU5NC42OSwxMDExLjk2IiBzdHlsZT0ic3Ryb2tlOiMxODE4MTg7c3Ryb2tlLXdpZHRoOjEuMDsiLz48L2c+PCEtLWxpbmsgUFBWRXZlbnQgdG8gUHJvZHVjdC0tPjxnIGlkPSJsaW5rX1BQVkV2ZW50X1Byb2R1Y3QiPjxwYXRoIGNvZGVMaW5lPSIxMzkiIGQ9Ik01MDYuODMsMTA5NC4yOSBDNTM3LjcyLDEwNzUuMjUgNTc2LjQsMTA1MC4wMiA2MTEuMDIsMTAyNi41MSAiIGZpbGw9Im5vbmUiIGlkPSJQUFZFdmVudC10by1Qcm9kdWN0IiBzdHlsZT0ic3Ryb2tlOiMxODE4MTg7c3Ryb2tlLXdpZHRoOjEuMDsiLz48cG9seWdvbiBmaWxsPSIjMTgxODE4IiBwb2ludHM9IjYxNS4yMiwxMDIzLjY2LDYwNS41MzA0LDEwMjUuNDI0MSw2MTEuMDg4NiwxMDI2LjQ3NjIsNjEwLjAzNjQsMTAzMi4wMzQ0LDYxNS4yMiwxMDIzLjY2IiBzdHlsZT0ic3Ryb2tlOiMxODE4MTg7c3Ryb2tlLXdpZHRoOjEuMDsiLz48L2c+PCEtLXJldmVyc2UgbGluayBQcm9kdWN0IHRvIEdhbWVSZW50YWwtLT48ZyBpZD0ibGlua19Qcm9kdWN0X0dhbWVSZW50YWwiPjxwYXRoIGQ9Ik02NDcuNTMsMTA0NS44OSBDNjM5LjksMTA2My4yNiA2MzMuMTEsMTA4MC40IDYyOC41NCwxMDk0LjI2ICIgZmlsbD0ibm9uZSIgaWQ9IlByb2R1Y3QtYmFja3RvLUdhbWVSZW50YWwiIHN0eWxlPSJzdHJva2U6IzE4MTgxODtzdHJva2Utd2lkdGg6MS4wOyIvPjxwb2x5Z29uIGZpbGw9Im5vbmUiIHBvaW50cz0iNjQxLjI1LDEwNDIuNzksNjU1LjksMTAyNy40OCw2NTMuOTksMTA0OC41OCw2NDEuMjUsMTA0Mi43OSIgc3R5bGU9InN0cm9rZTojMTgxODE4O3N0cm9rZS13aWR0aDoxLjA7Ii8+PC9nPjwhLS1saW5rIEdhbWVSZW50YWwgdG8gUHJvZHVjdC0tPjxnIGlkPSJsaW5rX0dhbWVSZW50YWxfUHJvZHVjdCI+PHBhdGggY29kZUxpbmU9IjE0MCIgZD0iTTY0OS40NywxMDk0LjI2IEM2NTkuNDMsMTA3Ni43MyA2NzAuNDYsMTA1My45NiA2NzkuODIsMTAzMi4xMiAiIGZpbGw9Im5vbmUiIGlkPSJHYW1lUmVudGFsLXRvLVByb2R1Y3QiIHN0eWxlPSJzdHJva2U6IzE4MTgxODtzdHJva2Utd2lkdGg6MS4wOyIvPjxwb2x5Z29uIGZpbGw9IiMxODE4MTgiIHBvaW50cz0iNjgxLjc5LDEwMjcuNDgsNjc0LjYxMDksMTAzNC4yMjI1LDY3OS44NDk3LDEwMzIuMDg4Miw2ODEuOTg0LDEwMzcuMzI2OSw2ODEuNzksMTAyNy40OCIgc3R5bGU9InN0cm9rZTojMTgxODE4O3N0cm9rZS13aWR0aDoxLjA7Ii8+PC9nPjwhLS1saW5rIEN1c3RvbWVyIHRvIEFjY291bnQtLT48ZyBpZD0ibGlua19DdXN0b21lcl9BY2NvdW50Ij48cGF0aCBjb2RlTGluZT0iMTMzIiBkPSJNODc2LjI5LDYyMS4zIEM4OTguMTgsNjQ4Ljc2IDkyMC45Miw2NzcuMyA5NDAuMzksNzAxLjc0ICIgZmlsbD0ibm9uZSIgaWQ9IkN1c3RvbWVyLXRvLUFjY291bnQiIHN0eWxlPSJzdHJva2U6IzE4MTgxODtzdHJva2Utd2lkdGg6MS4wOyIvPjxwb2x5Z29uIGZpbGw9IiMxODE4MTgiIHBvaW50cz0iOTQzLjc0LDcwNS45Myw5NDEuMjY2Nyw2OTYuMzk2Nyw5NDAuNjI3LDcwMi4wMTczLDkzNS4wMDY0LDcwMS4zNzc2LDk0My43NCw3MDUuOTMiIHN0eWxlPSJzdHJva2U6IzE4MTgxODtzdHJva2Utd2lkdGg6MS4wOyIvPjwvZz48IS0tbGluayBDdXN0b21lciB0byBPcmRlci0tPjxnIGlkPSJsaW5rX0N1c3RvbWVyX09yZGVyIj48cGF0aCBjb2RlTGluZT0iMTM0IiBkPSJNNzcyLjA5LDY0Ni4zNyBDNzcxLjc1LDY2NS4yNCA3NzEuNzgsNjgzLjg4IDc3Mi4yNCw3MDAuNjUgIiBmaWxsPSJub25lIiBpZD0iQ3VzdG9tZXItdG8tT3JkZXIiIHN0eWxlPSJzdHJva2U6IzE4MTgxODtzdHJva2Utd2lkdGg6MS4wOyIvPjxwb2x5Z29uIGZpbGw9IiMxODE4MTgiIHBvaW50cz0iNzcyLjM5LDcwNS43OSw3NzYuMTMxMyw2OTYuNjc5NCw3NzIuMjQ3Miw3MDAuNzkyLDc2OC4xMzQ2LDY5Ni45MDc5LDc3Mi4zOSw3MDUuNzkiIHN0eWxlPSJzdHJva2U6IzE4MTgxODtzdHJva2Utd2lkdGg6MS4wOyIvPjwvZz48IS0tbGluayBPcmRlciB0byBDdXN0b21lci0tPjxnIGlkPSJsaW5rX09yZGVyX0N1c3RvbWVyIj48cGF0aCBjb2RlTGluZT0iMTM2IiBkPSJNNzk1LjExLDcwNS43OSBDNzk2LjQ4LDY4OS4yOSA3OTcuNSw2NzAuNzEgNzk4LjEzLDY1MS43MyAiIGZpbGw9Im5vbmUiIGlkPSJPcmRlci10by1DdXN0b21lciIgc3R5bGU9InN0cm9rZTojMTgxODE4O3N0cm9rZS13aWR0aDoxLjA7Ii8+PHBvbHlnb24gZmlsbD0iIzE4MTgxOCIgcG9pbnRzPSI3OTguMjksNjQ2LjM3LDc5NC4wMDkzLDY1NS4yMzk5LDc5OC4xMzI5LDY1MS4zNjc1LDgwMi4wMDUzLDY1NS40OTEyLDc5OC4yOSw2NDYuMzciIHN0eWxlPSJzdHJva2U6IzE4MTgxODtzdHJva2Utd2lkdGg6MS4wOyIvPjwvZz48IS0tbGluayBPcmRlciB0byBQcm9kdWN0LS0+PGcgaWQ9ImxpbmtfT3JkZXJfUHJvZHVjdCI+PHBhdGggY29kZUxpbmU9IjEzNSIgZD0iTTc1NS4yOCw4MjkuMTggQzc0Ny41NSw4NDYuNzQgNzM5LjAzLDg2Ni4wOSA3MzEuMDEsODg0LjMxICIgZmlsbD0ibm9uZSIgaWQ9Ik9yZGVyLXRvLVByb2R1Y3QiIHN0eWxlPSJzdHJva2U6IzE4MTgxODtzdHJva2Utd2lkdGg6MS4wOyIvPjxwb2x5Z29uIGZpbGw9IiMxODE4MTgiIHBvaW50cz0iNzI4Ljk4LDg4OC45MSw3MzYuMjYxOCw4ODIuMjc4Niw3MzAuOTkwOCw4ODQuMzMyMiw3MjguOTM3Miw4NzkuMDYxMiw3MjguOTgsODg4LjkxIiBzdHlsZT0ic3Ryb2tlOiMxODE4MTg7c3Ryb2tlLXdpZHRoOjEuMDsiLz48L2c+PCEtLWxpbmsgSW5jaWRlbnRUaWNrZXQgdG8gQ3VzdG9tZXItLT48ZyBpZD0ibGlua19JbmNpZGVudFRpY2tldF9DdXN0b21lciI+PHBhdGggY29kZUxpbmU9IjE0MSIgZD0iTTk1MC43MSwzMTMuMTggQzkyOC4zNywzMzkuOTkgOTAzLjI2LDM3MC4xMyA4NzkuNTgsMzk4LjU2ICIgZmlsbD0ibm9uZSIgaWQ9IkluY2lkZW50VGlja2V0LXRvLUN1c3RvbWVyIiBzdHlsZT0ic3Ryb2tlOiMxODE4MTg7c3Ryb2tlLXdpZHRoOjEuMDsiLz48cG9seWdvbiBmaWxsPSIjMTgxODE4IiBwb2ludHM9Ijg3Ni4xLDQwMi43NSw4ODQuOTMzLDM5OC4zOTM1LDg3OS4yOTk1LDM5OC45MDc3LDg3OC43ODUzLDM5My4yNzQzLDg3Ni4xLDQwMi43NSIgc3R5bGU9InN0cm9rZTojMTgxODE4O3N0cm9rZS13aWR0aDoxLjA7Ii8+PC9nPjwhLS1saW5rIEluY2lkZW50VGlja2V0IHRvIFVzZXItLT48ZyBpZD0ibGlua19JbmNpZGVudFRpY2tldF9Vc2VyIj48cGF0aCBjb2RlTGluZT0iMTQyIiBkPSJNMTEwMC45NCwzMTMuMTggQzExNDQuMzEsMzU3Ljc1IDExOTYuNjIsNDExLjUxIDEyMzUuMzcsNDUxLjMzICIgZmlsbD0ibm9uZSIgaWQ9IkluY2lkZW50VGlja2V0LXRvLVVzZXIiIHN0eWxlPSJzdHJva2U6IzE4MTgxODtzdHJva2Utd2lkdGg6MS4wOyIvPjxwb2x5Z29uIGZpbGw9IiMxODE4MTgiIHBvaW50cz0iMTIzOS4wOCw0NTUuMTQsMTIzNS42NzQ4LDQ0NS44OTg1LDEyMzUuNTk0OCw0NTEuNTU0OCwxMjI5LjkzODUsNDUxLjQ3NDgsMTIzOS4wOCw0NTUuMTQiIHN0eWxlPSJzdHJva2U6IzE4MTgxODtzdHJva2Utd2lkdGg6MS4wOyIvPjwvZz48IS0tbGluayBQUFZFdmVudCB0byBTYWxlc0RhdGEtLT48ZyBpZD0ibGlua19QUFZFdmVudF9TYWxlc0RhdGEiPjxwYXRoIGNvZGVMaW5lPSIxNDMiIGQ9Ik00MTAuMzQsMTE1Ny41NiBDMzg2LjQ1LDExNzUuOTYgMzU1LjMxLDExOTkuOTUgMzI3LjEsMTIyMS42OCAiIGZpbGw9Im5vbmUiIGlkPSJQUFZFdmVudC10by1TYWxlc0RhdGEiIHN0eWxlPSJzdHJva2U6IzE4MTgxODtzdHJva2Utd2lkdGg6MS4wOyIvPjxwb2x5Z29uIGZpbGw9IiMxODE4MTgiIHBvaW50cz0iMzIyLjk2LDEyMjQuODcsMzMyLjUzMjksMTIyMi41NTQ4LDMyNi45MjM3LDEyMjEuODIyMSwzMjcuNjU2MywxMjE2LjIxMjksMzIyLjk2LDEyMjQuODciIHN0eWxlPSJzdHJva2U6IzE4MTgxODtzdHJva2Utd2lkdGg6MS4wOyIvPjwvZz48IS0tbGluayBaaXBDb2RlIHRvIFNhbGVzRGF0YS0tPjxnIGlkPSJsaW5rX1ppcENvZGVfU2FsZXNEYXRhIj48cGF0aCBjb2RlTGluZT0iMTQ0IiBkPSJNMTIwLjkyLDExNjUuMSBDMTQxLjA3LDExODIuMiAxNjUuMjYsMTIwMi43MiAxODcuNDUsMTIyMS41NSAiIGZpbGw9Im5vbmUiIGlkPSJaaXBDb2RlLXRvLVNhbGVzRGF0YSIgc3R5bGU9InN0cm9rZTojMTgxODE4O3N0cm9rZS13aWR0aDoxLjA7Ii8+PHBvbHlnb24gZmlsbD0iIzE4MTgxOCIgcG9pbnRzPSIxOTEuMjgsMTIyNC44LDE4Ni45OTQ4LDEyMTUuOTMyMywxODcuNDYzNiwxMjIxLjU2OTYsMTgxLjgyNjIsMTIyMi4wMzg1LDE5MS4yOCwxMjI0LjgiIHN0eWxlPSJzdHJva2U6IzE4MTgxODtzdHJva2Utd2lkdGg6MS4wOyIvPjwvZz48IS0tbGluayBJbmZsdWVudGlhbFJldmlld2VyIHRvIEN1c3RvbWVyLS0+PGcgaWQ9ImxpbmtfSW5mbHVlbnRpYWxSZXZpZXdlcl9DdXN0b21lciI+PHBhdGggY29kZUxpbmU9IjE0NSIgZD0iTTgwNy4yMywyNzUuNjggQzgwNS4xMywzMDEuMDkgODAyLjM5LDMzNC4yNCA3OTkuNjQsMzY3LjUzICIgZmlsbD0ibm9uZSIgaWQ9IkluZmx1ZW50aWFsUmV2aWV3ZXItdG8tQ3VzdG9tZXIiIHN0eWxlPSJzdHJva2U6IzE4MTgxODtzdHJva2Utd2lkdGg6MS4wOyIvPjxwb2x5Z29uIGZpbGw9IiMxODE4MTgiIHBvaW50cz0iNzk5LjIsMzcyLjg3LDgwMy45MzE1LDM2NC4yMzIxLDc5OS42MTQsMzY3Ljg4NzIsNzk1Ljk1OSwzNjMuNTY5Nyw3OTkuMiwzNzIuODciIHN0eWxlPSJzdHJva2U6IzE4MTgxODtzdHJva2Utd2lkdGg6MS4wOyIvPjwvZz48IS0tbGluayBSZXZpZXcgdG8gQ3VzdG9tZXItLT48ZyBpZD0ibGlua19SZXZpZXdfQ3VzdG9tZXIiPjxwYXRoIGNvZGVMaW5lPSIxNDYiIGQ9Ik02NTkuMDEsMjkwLjc3IEM2NzIuNjQsMzEzLjc5IDY4OC43OSwzNDEuMDUgNzA0Ljk3LDM2OC4zNiAiIGZpbGw9Im5vbmUiIGlkPSJSZXZpZXctdG8tQ3VzdG9tZXIiIHN0eWxlPSJzdHJva2U6IzE4MTgxODtzdHJva2Utd2lkdGg6MS4wOyIvPjxwb2x5Z29uIGZpbGw9IiMxODE4MTgiIHBvaW50cz0iNzA3LjU3LDM3Mi43NCw3MDYuNDA3OCwzNjIuOTYsNzA1LjAxNDMsMzY4LjQ0MjUsNjk5LjUzMTgsMzY3LjA0OSw3MDcuNTcsMzcyLjc0IiBzdHlsZT0ic3Ryb2tlOiMxODE4MTg7c3Ryb2tlLXdpZHRoOjEuMDsiLz48L2c+PCEtLWxpbmsgUmV2aWV3IHRvIFByb2R1Y3QtLT48ZyBpZD0ibGlua19SZXZpZXdfUHJvZHVjdCI+PHBhdGggY29kZUxpbmU9IjE0NyIgZD0iTTYyNi44NCwyOTAuNTQgQzYzNC4wOCwzOTguODUgNjUxLjM0LDYzMi44MSA2NzcsODI5IEM2NzkuMzMsODQ2Ljc4IDY4Mi4zMyw4NjUuODYgNjg1LjM3LDg4My43MyAiIGZpbGw9Im5vbmUiIGlkPSJSZXZpZXctdG8tUHJvZHVjdCIgc3R5bGU9InN0cm9rZTojMTgxODE4O3N0cm9rZS13aWR0aDoxLjA7Ii8+PHBvbHlnb24gZmlsbD0iIzE4MTgxOCIgcG9pbnRzPSI2ODYuMjIsODg4LjczLDY4OC42NDU3LDg3OS4xODQ1LDY4NS4zNzcyLDg4My44MDE1LDY4MC43NjAxLDg4MC41MzMxLDY4Ni4yMiw4ODguNzMiIHN0eWxlPSJzdHJva2U6IzE4MTgxODtzdHJva2Utd2lkdGg6MS4wOyIvPjwvZz48IS0tbGluayBNYW5hZ2VyIHRvIFVzZXItLT48ZyBpZD0ibGlua19NYW5hZ2VyX1VzZXIiPjxwYXRoIGNvZGVMaW5lPSIxNDgiIGQ9Ik0xMjE5Ljk0LDI3NS42OCBDMTIzMy4yLDMxOS4xMyAxMjUzLjM4LDM4NS4yMiAxMjY4Ljg0LDQzNS45ICIgZmlsbD0ibm9uZSIgaWQ9Ik1hbmFnZXItdG8tVXNlciIgc3R5bGU9InN0cm9rZTojMTgxODE4O3N0cm9rZS13aWR0aDoxLjA7Ii8+PHBvbHlnb24gZmlsbD0ibm9uZSIgcG9pbnRzPSIxMjc1LjU4LDQzNC4wMSwxMjc0LjczLDQ1NS4xOCwxMjYyLjE5LDQzOC4wOSwxMjc1LjU4LDQzNC4wMSIgc3R5bGU9InN0cm9rZTojMTgxODE4O3N0cm9rZS13aWR0aDoxLjA7Ii8+PC9nPjwhLS1saW5rIEFjY291bnRTcGVjaWFsaXN0IHRvIFVzZXItLT48ZyBpZD0ibGlua19BY2NvdW50U3BlY2lhbGlzdF9Vc2VyIj48cGF0aCBjb2RlTGluZT0iMTQ5IiBkPSJNMTM1OS44MSwyODMuMDQgQzEzNDYuNTksMzI2LjM2IDEzMjcuNzcsMzg4LjAzIDEzMTMuMTUsNDM1LjkzICIgZmlsbD0ibm9uZSIgaWQ9IkFjY291bnRTcGVjaWFsaXN0LXRvLVVzZXIiIHN0eWxlPSJzdHJva2U6IzE4MTgxODtzdHJva2Utd2lkdGg6MS4wOyIvPjxwb2x5Z29uIGZpbGw9Im5vbmUiIHBvaW50cz0iMTMxOS44MSw0MzguMSwxMzA3LjI3LDQ1NS4xOCwxMzA2LjQyLDQzNC4wMSwxMzE5LjgxLDQzOC4xIiBzdHlsZT0ic3Ryb2tlOiMxODE4MTg7c3Ryb2tlLXdpZHRoOjEuMDsiLz48L2c+PCEtLWxpbmsgVGVjaG5pY2FsU3VwcG9ydFNwZWNpYWxpc3QgdG8gVXNlci0tPjxnIGlkPSJsaW5rX1RlY2huaWNhbFN1cHBvcnRTcGVjaWFsaXN0X1VzZXIiPjxwYXRoIGNvZGVMaW5lPSIxNTAiIGQ9Ik0xNTQ0LjMxLDI3NS42OCBDMTQ5NS4xNywzMjAuODQgMTQxOS40NCwzOTAuNDQgMTM2My41OCw0NDEuNzkgIiBmaWxsPSJub25lIiBpZD0iVGVjaG5pY2FsU3VwcG9ydFNwZWNpYWxpc3QtdG8tVXNlciIgc3R5bGU9InN0cm9rZTojMTgxODE4O3N0cm9rZS13aWR0aDoxLjA7Ii8+PHBvbHlnb24gZmlsbD0ibm9uZSIgcG9pbnRzPSIxMzY4LjIxLDQ0Ny4wNCwxMzQ4Ljc1LDQ1NS40MiwxMzU4Ljc0LDQzNi43MywxMzY4LjIxLDQ0Ny4wNCIgc3R5bGU9InN0cm9rZTojMTgxODE4O3N0cm9rZS13aWR0aDoxLjA7Ii8+PC9nPjwhLS1saW5rIFNhbGVzVGVhbSB0byBTYWxlc0RhdGEtLT48ZyBpZD0ibGlua19TYWxlc1RlYW1fU2FsZXNEYXRhIj48cGF0aCBjb2RlTGluZT0iMTUxIiBkPSJNMjU0LDExNjUuMSBDMjU0LDExODEuNjMgMjU0LDEyMDEuMzcgMjU0LDEyMTkuNjcgIiBmaWxsPSJub25lIiBpZD0iU2FsZXNUZWFtLXRvLVNhbGVzRGF0YSIgc3R5bGU9InN0cm9rZTojMTgxODE4O3N0cm9rZS13aWR0aDoxLjA7Ii8+PHBvbHlnb24gZmlsbD0iIzE4MTgxOCIgcG9pbnRzPSIyNTQsMTIyNC44LDI1OCwxMjE1LjgsMjU0LDEyMTkuOCwyNTAsMTIxNS44LDI1NCwxMjI0LjgiIHN0eWxlPSJzdHJva2U6IzE4MTgxODtzdHJva2Utd2lkdGg6MS4wOyIvPjwvZz48IS0tbGluayBEYXRhU2NpZW50aXN0IHRvIEluZmx1ZW50aWFsUmV2aWV3ZXItLT48ZyBpZD0ibGlua19EYXRhU2NpZW50aXN0X0luZmx1ZW50aWFsUmV2aWV3ZXIiPjxwYXRoIGNvZGVMaW5lPSIxNTIiIGQ9Ik04MTEsODUuMzkgQzgxMSwxMTIuMDYgODExLDE0Ny44OCA4MTEsMTc2Ljk2ICIgZmlsbD0ibm9uZSIgaWQ9IkRhdGFTY2llbnRpc3QtdG8tSW5mbHVlbnRpYWxSZXZpZXdlciIgc3R5bGU9InN0cm9rZTojMTgxODE4O3N0cm9rZS13aWR0aDoxLjA7Ii8+PHBvbHlnb24gZmlsbD0iIzE4MTgxOCIgcG9pbnRzPSI4MTEsMTgyLjMsODE1LDE3My4zLDgxMSwxNzcuMyw4MDcsMTczLjMsODExLDE4Mi4zIiBzdHlsZT0ic3Ryb2tlOiMxODE4MTg7c3Ryb2tlLXdpZHRoOjEuMDsiLz48L2c+PCEtLVNSQz1bZkxSRFpqQ200Qnh0QU5lNGVSdTAxd0liOEJKSUJiSGp3TzdSTzR6UlFucXhzQ3VrdlVWVDZTVW43SVZVTElMd2Nzei1GVkZEZjRvMmpTanJQdnJrcTJuX0J2UnFVeUM2LVBPbHRvdzVTVzR6MmNGVFBzWUdHRWtDS0FVMEt1V1FaMHE4RVM3UWlyUEpFLTNTODFMSGVidEJtVTRNY0pSeXJVbDE2b3h0TWhjcGxCbU5LYVJLZTdBVkE3c0tvRzdEUGRFOENXRjVLOHcxQ3dXSlJZSWVZRFprVW9GUzVYeTVGWU5pMzBSbFg3ZjgwM2laeG9KVWpBc2NkWklLYmJIXzVtbE16XzI2Q1RxZjVyaThHSW14TUV6aFB6NmVVVnpRWWxmNFp3YnEtcXdWWDJCU1lHUWpXd1JEUE5wbmh1ejV6QXN1ZmVKVXkwQ3JsMFlRTFZqQkVvc0ZKNW10Y2JnZ082Q3F4clhnSDFsNENqeTBMYldwUTJlOUVMZmNIRWs0TFpDVm1SbXJIb09RYUZGdmZUaHMxcF9zOVZ2cWdGWWlMNHlDWFQ4RWJJUWxNLUxlR2tYVXloS2o4Z3pyT3RGdS00WEtVU3VGbE5CTS1VSmtZUnFiMnYzRjFKWUhIUUxZOVpZdnhHTHhtNkpnVWthUUZaWGFQb01PMDNOMS1tWHJlYW05S0luRHNac2ZCUFFSRVB4Rkx2bDl3elZZVm5SNVE4Y0xXT0dqWnFiQ0JydEphWWdGM0pXQU5aWmhuYi02SWs5bGVicmhaWjdwaG8yTXlHUW11aHEzWVBPUTN1Ym00UllZcDZnazducWU5em5icGZzWnhFVzkwY0plTEh3OTZVSGgtYk1xOVdNXzFtTWRxT1VjUHExX2lvOGZtazRsODh1SUNwSXprQmtNclh3YWk3Y0YzTEE4R0x0NmRPMzFDY245dlZrSHhxUk8xdjJ4Wmd3X2dVSUNIMnpaek5JVkdGc0o0ck9FVThfR244WDdSUDNIaVRfdzR6NVhSYU8zWWp5ZWExU2h4M1kyOXlFRTJKLXdORFRIQTR2NWVyYmhrY3RDUU1GcHV4TXJUNHFReE16Z1k5Si0yUW5NeHNBM0l4MFZtbzl5UGhteWRBQ0g0aXFObXhLVE1uTWRUQW44VHQ4Q1pndlY2UUl1UmFORVlpdVZiSjktTWdQNU5DZUloUXIwYU1LdThpelhpVDM4empOZ3ByMzZkQkRQem1COWliNmNJTGJvRU5vbGdwcFk3bTAwXS0tPjwvZz48L3N2Zz4=;" vertex="1" parent="1">
            <mxGeometry x="-440" y="-320" width="1708" height="1339" as="geometry" />
          </mxCell>
        </UserObject>
      </root>
    </mxGraphModel>
  </diagram>
</mxfile>
